<svg viewBox="0 0 1501 400" xmlns="http://www.w3.org/2000/svg"><g><g><g><g><g><line x1="51.53200149536133" y1="376.8999996185303" x2="46.53200149536133" y2="376.8999996185303" style="visibility: inherit;" fill="rgb(0, 0, 0)" stroke="rgb(204, 204, 204)" stroke-width="1px"></line><line x1="51.53200149536133" y1="347.9076919555664" x2="46.53200149536133" y2="347.9076919555664" style="visibility: inherit;" fill="rgb(0, 0, 0)" stroke="rgb(204, 204, 204)" stroke-width="1px"></line><line x1="51.53200149536133" y1="318.91538429260254" x2="46.53200149536133" y2="318.91538429260254" style="visibility: inherit;" fill="rgb(0, 0, 0)" stroke="rgb(204, 204, 204)" stroke-width="1px"></line><line x1="51.53200149536133" y1="289.9230766296387" x2="46.53200149536133" y2="289.9230766296387" style="visibility: inherit;" fill="rgb(0, 0, 0)" stroke="rgb(204, 204, 204)" stroke-width="1px"></line><line x1="51.53200149536133" y1="260.9307689666748" x2="46.53200149536133" y2="260.9307689666748" style="visibility: inherit;" fill="rgb(0, 0, 0)" stroke="rgb(204, 204, 204)" stroke-width="1px"></line><line x1="51.53200149536133" y1="231.93846130371094" x2="46.53200149536133" y2="231.93846130371094" style="visibility: inherit;" fill="rgb(0, 0, 0)" stroke="rgb(204, 204, 204)" stroke-width="1px"></line><line x1="51.53200149536133" y1="202.9461536407471" x2="46.53200149536133" y2="202.9461536407471" style="visibility: inherit;" fill="rgb(0, 0, 0)" stroke="rgb(204, 204, 204)" stroke-width="1px"></line><line x1="51.53200149536133" y1="173.9538459777832" x2="46.53200149536133" y2="173.9538459777832" style="visibility: inherit;" fill="rgb(0, 0, 0)" stroke="rgb(204, 204, 204)" stroke-width="1px"></line><line x1="51.53200149536133" y1="144.96153831481936" x2="46.53200149536133" y2="144.96153831481936" style="visibility: inherit;" fill="rgb(0, 0, 0)" stroke="rgb(204, 204, 204)" stroke-width="1px"></line><line x1="51.53200149536133" y1="115.96923065185547" x2="46.53200149536133" y2="115.96923065185547" style="visibility: inherit;" fill="rgb(0, 0, 0)" stroke="rgb(204, 204, 204)" stroke-width="1px"></line><line x1="51.53200149536133" y1="86.97692298889163" x2="46.53200149536133" y2="86.97692298889163" style="visibility: inherit;" fill="rgb(0, 0, 0)" stroke="rgb(204, 204, 204)" stroke-width="1px"></line><line x1="51.53200149536133" y1="57.984615325927734" x2="46.53200149536133" y2="57.984615325927734" style="visibility: inherit;" fill="rgb(0, 0, 0)" stroke="rgb(204, 204, 204)" stroke-width="1px"></line><line x1="51.53200149536133" y1="28.99230766296385" x2="46.53200149536133" y2="28.99230766296385" style="visibility: inherit;" fill="rgb(0, 0, 0)" stroke="rgb(204, 204, 204)" stroke-width="1px"></line><line x1="51.53200149536133" y1="0" x2="46.53200149536133" y2="0" style="visibility: inherit;" fill="rgb(0, 0, 0)" stroke="rgb(204, 204, 204)" stroke-width="1px"></line></g><g transform="translate(41.53200149536133, 0)"><text style="text-anchor: end; visibility: hidden; font-family: Roboto, sans-serif; font-size: 12px; font-weight: 200;" x="0" y="376.8999996185303" dx="0em" dy="0.3em" fill="rgb(255, 255, 255)" stroke="none" stroke-width="1px">-0.2</text><text style="text-anchor: end; visibility: inherit; font-family: Roboto, sans-serif; font-size: 12px; font-weight: 200;" x="0" y="347.9076919555664" dx="0em" dy="0.3em" fill="rgb(255, 255, 255)" stroke="none" stroke-width="1px">0</text><text style="text-anchor: end; visibility: inherit; font-family: Roboto, sans-serif; font-size: 12px; font-weight: 200;" x="0" y="318.91538429260254" dx="0em" dy="0.3em" fill="rgb(255, 255, 255)" stroke="none" stroke-width="1px">0.2</text><text style="text-anchor: end; visibility: inherit; font-family: Roboto, sans-serif; font-size: 12px; font-weight: 200;" x="0" y="289.9230766296387" dx="0em" dy="0.3em" fill="rgb(255, 255, 255)" stroke="none" stroke-width="1px">0.4</text><text style="text-anchor: end; visibility: inherit; font-family: Roboto, sans-serif; font-size: 12px; font-weight: 200;" x="0" y="260.9307689666748" dx="0em" dy="0.3em" fill="rgb(255, 255, 255)" stroke="none" stroke-width="1px">0.6</text><text style="text-anchor: end; visibility: inherit; font-family: Roboto, sans-serif; font-size: 12px; font-weight: 200;" x="0" y="231.93846130371094" dx="0em" dy="0.3em" fill="rgb(255, 255, 255)" stroke="none" stroke-width="1px">0.8</text><text style="text-anchor: end; visibility: inherit; font-family: Roboto, sans-serif; font-size: 12px; font-weight: 200;" x="0" y="202.9461536407471" dx="0em" dy="0.3em" fill="rgb(255, 255, 255)" stroke="none" stroke-width="1px">1</text><text style="text-anchor: end; visibility: inherit; font-family: Roboto, sans-serif; font-size: 12px; font-weight: 200;" x="0" y="173.9538459777832" dx="0em" dy="0.3em" fill="rgb(255, 255, 255)" stroke="none" stroke-width="1px">1.2</text><text style="text-anchor: end; visibility: inherit; font-family: Roboto, sans-serif; font-size: 12px; font-weight: 200;" x="0" y="144.96153831481936" dx="0em" dy="0.3em" fill="rgb(255, 255, 255)" stroke="none" stroke-width="1px">1.4</text><text style="text-anchor: end; visibility: inherit; font-family: Roboto, sans-serif; font-size: 12px; font-weight: 200;" x="0" y="115.96923065185547" dx="0em" dy="0.3em" fill="rgb(255, 255, 255)" stroke="none" stroke-width="1px">1.6</text><text style="text-anchor: end; visibility: inherit; font-family: Roboto, sans-serif; font-size: 12px; font-weight: 200;" x="0" y="86.97692298889163" dx="0em" dy="0.3em" fill="rgb(255, 255, 255)" stroke="none" stroke-width="1px">1.8</text><text style="text-anchor: end; visibility: inherit; font-family: Roboto, sans-serif; font-size: 12px; font-weight: 200;" x="0" y="57.984615325927734" dx="0em" dy="0.3em" fill="rgb(255, 255, 255)" stroke="none" stroke-width="1px">2</text><text style="text-anchor: end; visibility: inherit; font-family: Roboto, sans-serif; font-size: 12px; font-weight: 200;" x="0" y="28.99230766296385" dx="0em" dy="0.3em" fill="rgb(255, 255, 255)" stroke="none" stroke-width="1px">2.2</text><text style="text-anchor: end; visibility: hidden; font-family: Roboto, sans-serif; font-size: 12px; font-weight: 200;" x="0" y="0" dx="0em" dy="0.3em" fill="rgb(255, 255, 255)" stroke="none" stroke-width="1px">2.4</text></g><line x1="51.53200149536133" y1="0" x2="51.53200149536133" y2="376.8999996185303" fill="rgb(0, 0, 0)" stroke="rgb(204, 204, 204)" stroke-width="1px"></line></g></g><g transform="translate(51, 0)" clip-path="url(#clip_0)"><clipPath id="clip_0"><rect width="1449" height="376"></rect></clipPath><g><g><g><line x1="0" y1="0" x2="0" y2="376.8999996185303" fill="rgb(0, 0, 0)" stroke="rgb(189, 189, 189)" stroke-width="1px" opacity="0.25"></line><line x1="131.76981804587624" y1="0" x2="131.76981804587624" y2="376.8999996185303" fill="rgb(0, 0, 0)" stroke="rgb(189, 189, 189)" stroke-width="1px" opacity="0.25"></line><line x1="263.53963609175247" y1="0" x2="263.53963609175247" y2="376.8999996185303" fill="rgb(0, 0, 0)" stroke="rgb(189, 189, 189)" stroke-width="1px" opacity="0.25"></line><line x1="395.3094541376287" y1="0" x2="395.3094541376287" y2="376.8999996185303" fill="rgb(0, 0, 0)" stroke="rgb(189, 189, 189)" stroke-width="1px" opacity="0.25"></line><line x1="527.0792721835049" y1="0" x2="527.0792721835049" y2="376.8999996185303" fill="rgb(0, 0, 0)" stroke="rgb(189, 189, 189)" stroke-width="1px" opacity="0.25"></line><line x1="658.8490902293812" y1="0" x2="658.8490902293812" y2="376.8999996185303" fill="rgb(0, 0, 0)" stroke="rgb(189, 189, 189)" stroke-width="1px" opacity="0.25"></line><line x1="790.6189082752574" y1="0" x2="790.6189082752574" y2="376.8999996185303" fill="rgb(0, 0, 0)" stroke="rgb(189, 189, 189)" stroke-width="1px" opacity="0.25"></line><line x1="922.3887263211337" y1="0" x2="922.3887263211337" y2="376.8999996185303" fill="rgb(0, 0, 0)" stroke="rgb(189, 189, 189)" stroke-width="1px" opacity="0.25"></line><line x1="1054.1585443670099" y1="0" x2="1054.1585443670099" y2="376.8999996185303" fill="rgb(0, 0, 0)" stroke="rgb(189, 189, 189)" stroke-width="1px" opacity="0.25"></line><line x1="1185.9283624128864" y1="0" x2="1185.9283624128864" y2="376.8999996185303" fill="rgb(0, 0, 0)" stroke="rgb(189, 189, 189)" stroke-width="1px" opacity="0.25"></line><line x1="1317.6981804587624" y1="0" x2="1317.6981804587624" y2="376.8999996185303" fill="rgb(0, 0, 0)" stroke="rgb(189, 189, 189)" stroke-width="1px" opacity="0.25"></line><line x1="1449.4679985046387" y1="0" x2="1449.4679985046387" y2="376.8999996185303" fill="rgb(0, 0, 0)" stroke="rgb(189, 189, 189)" stroke-width="1px" opacity="0.25"></line></g><g><line x1="0" y1="376.8999996185303" x2="1449.4679985046387" y2="376.8999996185303" fill="rgb(0, 0, 0)" stroke="rgb(189, 189, 189)" stroke-width="1px" opacity="0.25"></line><line x1="0" y1="347.9076919555664" x2="1449.4679985046387" y2="347.9076919555664" fill="rgb(0, 0, 0)" stroke="rgb(189, 189, 189)" stroke-width="1px" opacity="0.25"></line><line x1="0" y1="318.91538429260254" x2="1449.4679985046387" y2="318.91538429260254" fill="rgb(0, 0, 0)" stroke="rgb(189, 189, 189)" stroke-width="1px" opacity="0.25"></line><line x1="0" y1="289.9230766296387" x2="1449.4679985046387" y2="289.9230766296387" fill="rgb(0, 0, 0)" stroke="rgb(189, 189, 189)" stroke-width="1px" opacity="0.25"></line><line x1="0" y1="260.9307689666748" x2="1449.4679985046387" y2="260.9307689666748" fill="rgb(0, 0, 0)" stroke="rgb(189, 189, 189)" stroke-width="1px" opacity="0.25"></line><line x1="0" y1="231.93846130371094" x2="1449.4679985046387" y2="231.93846130371094" fill="rgb(0, 0, 0)" stroke="rgb(189, 189, 189)" stroke-width="1px" opacity="0.25"></line><line x1="0" y1="202.9461536407471" x2="1449.4679985046387" y2="202.9461536407471" fill="rgb(0, 0, 0)" stroke="rgb(189, 189, 189)" stroke-width="1px" opacity="0.25"></line><line x1="0" y1="173.9538459777832" x2="1449.4679985046387" y2="173.9538459777832" fill="rgb(0, 0, 0)" stroke="rgb(189, 189, 189)" stroke-width="1px" opacity="0.25"></line><line x1="0" y1="144.96153831481936" x2="1449.4679985046387" y2="144.96153831481936" fill="rgb(0, 0, 0)" stroke="rgb(189, 189, 189)" stroke-width="1px" opacity="0.25"></line><line x1="0" y1="115.96923065185547" x2="1449.4679985046387" y2="115.96923065185547" fill="rgb(0, 0, 0)" stroke="rgb(189, 189, 189)" stroke-width="1px" opacity="0.25"></line><line x1="0" y1="86.97692298889163" x2="1449.4679985046387" y2="86.97692298889163" fill="rgb(0, 0, 0)" stroke="rgb(189, 189, 189)" stroke-width="1px" opacity="0.25"></line><line x1="0" y1="57.984615325927734" x2="1449.4679985046387" y2="57.984615325927734" fill="rgb(0, 0, 0)" stroke="rgb(189, 189, 189)" stroke-width="1px" opacity="0.25"></line><line x1="0" y1="28.99230766296385" x2="1449.4679985046387" y2="28.99230766296385" fill="rgb(0, 0, 0)" stroke="rgb(189, 189, 189)" stroke-width="1px" opacity="0.25"></line><line x1="0" y1="0" x2="1449.4679985046387" y2="0" fill="rgb(0, 0, 0)" stroke="rgb(189, 189, 189)" stroke-width="1px" opacity="0.25"></line></g></g></g><g><g><line x1="0" y1="347.9076919555664" x2="1449.4679985046387" y2="347.9076919555664" fill="rgb(0, 0, 0)" stroke="rgb(153, 153, 153)" stroke-width="1.5px"></line></g></g><g><g><line x1="131.76981804587624" y1="0" x2="131.76981804587624" y2="376.8999996185303" fill="rgb(0, 0, 0)" stroke="rgb(153, 153, 153)" stroke-width="1.5px"></line></g></g><g><g><g><g><g><path style="fill: none;" stroke="rgb(204, 51, 17)" stroke-width="2px" d="M144.28795076023448,38.92462607625565L157.4649325648221,64.61291080042406L170.64191436940973,80.13874969755331L183.8188961739974,100.36849891263107L196.99587797858496,141.32569702935018L210.17285978317258,185.5869158868014L223.3498415877602,229.60337566644353L236.52682339234784,256.22949831420937L249.7038051969355,280.766594567458L262.8807870015231,300.462398155915L276.05776880611074,312.0142772693302L289.23475061069837,317.93919873110906L302.411732415286,324.6965693929121L315.58871421987357,331.5826915659529L328.7656960244612,333.74281166731555L341.9426778290488,334.49490787953437L355.11965963363645,336.59580853919033L368.29664143822407,334.77214664169776L381.4736232428117,335.8121916127612L394.6506050473994,337.6964714180694L407.827586851987,336.16394436545534L421.00456865657463,336.74997981979095L434.18155046116226,338.65155817322324L447.3585322657499,338.5917195044702L460.5355140703375,340.4385303992726L473.71249587492514,339.9311825079103L486.88947767951277,339.8909663429021L500.0664594841003,339.6362683937544L513.2434412886879,339.2941008892721L526.4204230932755,338.67754416202115L539.5974048978632,339.2152393711735L552.7743867024508,339.33705700479265L565.9513685070384,339.29621270136386L579.128350311626,339.09964243248186L592.3053321162137,340.3931646415004L605.4823139208013,339.95705235912493L618.6592957253889,339.1803091971388L631.8362775299765,339.06915140112164L645.0132593345642,338.87698802295733L658.1902411391518,340.1536553768663L671.3672229437394,340.10098336012607L684.5442047483272,339.8688803249784L697.7211865529148,340.80101084328476L710.8981683575024,341.21875539314476L724.07515016209,341.6389663599621L737.2521319666777,337.88350883346993L750.4291137712652,338.2857886704159L763.6060955758529,340.4898938554614L776.7830773804404,341.3501104077022L789.9600591850282,341.3304997795705L803.1370409896157,340.63412858305867L816.3140227942034,341.3505695044792L829.4910045987909,340.22781505063756L842.6679864033787,341.5965221761319L855.8449682079662,340.90933649413336L869.0219500125537,342.19499798100065L882.1989318171414,342.63322847815823L895.375913621729,339.02057507434864L908.5528954263167,339.15620878473607L921.7298772309042,337.9899452121513L934.906859035492,338.31061088015895L948.0838408400795,338.9831687815386L961.2608226446672,340.5939513799256L974.4378044492548,340.36978637396123L987.6147862538425,339.9332743011251L1000.7917680584301,339.5417693348156L1013.9687498630177,340.510270755112L1027.1457316676053,339.87799642354634L1040.322713472193,341.20335005010753L1053.4996952767806,338.4729487242194L1066.6766770813683,339.2084836882596L1079.8536588859558,338.31108693196416L1093.0306406905436,339.37844035751544L1106.207622495131,338.94345849738284L1119.3846042997186,339.0456505157648L1132.5615861043063,340.29189569624657L1145.7385679088939,340.5061794174831L1158.9155497134816,340.2883239425935L1172.092531518069,340.7828759327138L1185.2695133226568,340.0428795643143L1198.4464951272444,340.6589163014676L1211.623476931832,339.602463549033L1224.8004587364196,337.9454925920381L1237.9774405410074,338.903261297076L1251.1544223455949,340.0021741809606L1264.3314041501826,339.91476078288105L1277.5083859547701,340.1237019819842L1290.6853677593579,340.90707880447064L1303.8623495639454,339.09446226090176L1317.039331368533,339.35670799084255L1330.2163131731206,339.19188931890176L1343.3932949777081,339.41886144467134L1356.5702767822959,340.48349642818414L1369.7472585868834,340.5939624022566" fill="none"></path></g></g></g></g><g opacity="0.2"><g><g><g><path style="fill: none;" stroke="rgb(204, 51, 17)" stroke-width="2px" d="M144.28795076023448,38.92462607625565L157.4649325648221,80.02588163492507L170.64191436940973,95.04355503879744L183.8188961739974,124.15868398956243L196.99587797858496,194.79941489053863L210.17285978317258,246.81611560544502L223.3498415877602,292.5476174146883L236.52682339234784,295.05064074542935L249.7038051969355,316.9540454554235L262.8807870015231,329.70837105704027L276.05776880611074,329.2373212461125L289.23475061069837,326.79433776282684L302.411732415286,334.81056139797505L315.58871421987357,341.8983841953154L328.7656960244612,336.98045267926807L341.9426778290488,335.6225217613437L355.11965963363645,339.7462704979244L368.29664143822407,332.0371168230172L381.4736232428117,337.372100628973L394.6506050473994,340.52271889539395L407.827586851987,333.86523783396L421.00456865657463,337.62901371754816L434.18155046116226,341.50388816002413L447.3585322657499,338.5019622101866L460.5355140703375,343.2087336151349L473.71249587492514,339.17016283447373L486.88947767951277,339.8306421982921L500.0664594841003,339.2542218610541L513.2434412886879,338.78084994773326L526.4204230932755,337.75270941190627L539.5974048978632,340.02178200659637L552.7743867024508,339.5197834309838L565.9513685070384,339.23494625109663L579.128350311626,338.80478704323883L592.3053321162137,342.33344789943675L605.4823139208013,339.30288394680736L618.6592957253889,338.0151944661771L631.8362775299765,338.9024147081279L645.0132593345642,338.5887429567811L658.1902411391518,342.0686564034634L671.3672229437394,340.02197533512117L684.5442047483272,339.5207257725363L697.7211865529148,342.19920662007144L710.8981683575024,341.8453722177537L724.07515016209,342.269282810079L737.2521319666777,332.2503225443172L750.4291137712652,338.8892084257972L763.6060955758529,343.79605163290586L776.7830773804404,342.6404352360344L789.9600591850282,341.3010838373734L803.1370409896157,339.58957178829934L816.3140227942034,342.4252308866049L829.4910045987909,338.54368336987994L842.6679864033787,343.6495828643698L855.8449682079662,339.8785579711367L869.0219500125537,344.12349021130046L882.1989318171414,343.2905742238942L895.375913621729,333.60159496863554L908.5528954263167,339.3596593503171L921.7298772309042,336.24054985327444L934.906859035492,338.7916093821703L948.0838408400795,339.9920056336081L961.2608226446672,343.01012527750606L974.4378044492548,340.0335388650147L987.6147862538425,339.2785061918709L1000.7917680584301,338.9545118853514L1013.9687498630177,341.9630228855565L1027.1457316676053,338.92958492619783L1040.322713472193,343.1913804899494L1053.4996952767806,334.3773467353871L1066.6766770813683,340.31178613431996L1079.8536588859558,336.96499179752095L1093.0306406905436,340.97947049584246L1106.207622495131,338.29098570718384L1119.3846042997186,339.19893854333776L1132.5615861043063,342.1612634669692L1145.7385679088939,340.82760499933784L1158.9155497134816,339.96154073025906L1172.092531518069,341.5247039178944L1185.2695133226568,338.93288501171503L1198.4464951272444,341.5829714071976L1211.623476931832,338.017784420381L1224.8004587364196,335.4600361565457L1237.9774405410074,340.33991435463304L1251.1544223455949,341.6505435067874L1264.3314041501826,339.7836406857617L1277.5083859547701,340.4371137806389L1290.6853677593579,342.0821440382003L1303.8623495639454,336.3755374455484L1317.039331368533,339.75007658575373L1330.2163131731206,338.9446613109906L1343.3932949777081,339.7593196333256L1356.5702767822959,342.0804489034534L1369.7472585868834,340.7596613633652" fill="none"></path></g></g></g></g></g></g><g transform="translate(51, 376)" clip-path="url(#clip_1)"><clipPath id="clip_1"><rect width="1449" height="23"></rect></clipPath><g><g><line x1="0" y1="0" x2="0" y2="5" style="visibility: inherit;" fill="rgb(0, 0, 0)" stroke="rgb(204, 204, 204)" stroke-width="1px"></line><line x1="131.76981804587624" y1="0" x2="131.76981804587624" y2="5" style="visibility: inherit;" fill="rgb(0, 0, 0)" stroke="rgb(204, 204, 204)" stroke-width="1px"></line><line x1="263.53963609175247" y1="0" x2="263.53963609175247" y2="5" style="visibility: inherit;" fill="rgb(0, 0, 0)" stroke="rgb(204, 204, 204)" stroke-width="1px"></line><line x1="395.3094541376287" y1="0" x2="395.3094541376287" y2="5" style="visibility: inherit;" fill="rgb(0, 0, 0)" stroke="rgb(204, 204, 204)" stroke-width="1px"></line><line x1="527.0792721835049" y1="0" x2="527.0792721835049" y2="5" style="visibility: inherit;" fill="rgb(0, 0, 0)" stroke="rgb(204, 204, 204)" stroke-width="1px"></line><line x1="658.8490902293812" y1="0" x2="658.8490902293812" y2="5" style="visibility: inherit;" fill="rgb(0, 0, 0)" stroke="rgb(204, 204, 204)" stroke-width="1px"></line><line x1="790.6189082752574" y1="0" x2="790.6189082752574" y2="5" style="visibility: inherit;" fill="rgb(0, 0, 0)" stroke="rgb(204, 204, 204)" stroke-width="1px"></line><line x1="922.3887263211337" y1="0" x2="922.3887263211337" y2="5" style="visibility: inherit;" fill="rgb(0, 0, 0)" stroke="rgb(204, 204, 204)" stroke-width="1px"></line><line x1="1054.1585443670099" y1="0" x2="1054.1585443670099" y2="5" style="visibility: inherit;" fill="rgb(0, 0, 0)" stroke="rgb(204, 204, 204)" stroke-width="1px"></line><line x1="1185.9283624128864" y1="0" x2="1185.9283624128864" y2="5" style="visibility: inherit;" fill="rgb(0, 0, 0)" stroke="rgb(204, 204, 204)" stroke-width="1px"></line><line x1="1317.6981804587624" y1="0" x2="1317.6981804587624" y2="5" style="visibility: inherit;" fill="rgb(0, 0, 0)" stroke="rgb(204, 204, 204)" stroke-width="1px"></line><line x1="1449.4679985046387" y1="0" x2="1449.4679985046387" y2="5" style="visibility: inherit;" fill="rgb(0, 0, 0)" stroke="rgb(204, 204, 204)" stroke-width="1px"></line></g><g transform="translate(0, 8)"><text style="text-anchor: middle; visibility: hidden; font-family: Roboto, sans-serif; font-size: 12px; font-weight: 200;" x="0" y="0" dx="0em" dy="0.95em" fill="rgb(255, 255, 255)" stroke="none" stroke-width="1px">-200</text><text style="text-anchor: middle; visibility: inherit; font-family: Roboto, sans-serif; font-size: 12px; font-weight: 200;" x="131.76981804587624" y="0" dx="0em" dy="0.95em" fill="rgb(255, 255, 255)" stroke="none" stroke-width="1px">0</text><text style="text-anchor: middle; visibility: inherit; font-family: Roboto, sans-serif; font-size: 12px; font-weight: 200;" x="263.53963609175247" y="0" dx="0em" dy="0.95em" fill="rgb(255, 255, 255)" stroke="none" stroke-width="1px">200</text><text style="text-anchor: middle; visibility: inherit; font-family: Roboto, sans-serif; font-size: 12px; font-weight: 200;" x="395.3094541376287" y="0" dx="0em" dy="0.95em" fill="rgb(255, 255, 255)" stroke="none" stroke-width="1px">400</text><text style="text-anchor: middle; visibility: inherit; font-family: Roboto, sans-serif; font-size: 12px; font-weight: 200;" x="527.0792721835049" y="0" dx="0em" dy="0.95em" fill="rgb(255, 255, 255)" stroke="none" stroke-width="1px">600</text><text style="text-anchor: middle; visibility: inherit; font-family: Roboto, sans-serif; font-size: 12px; font-weight: 200;" x="658.8490902293812" y="0" dx="0em" dy="0.95em" fill="rgb(255, 255, 255)" stroke="none" stroke-width="1px">800</text><text style="text-anchor: middle; visibility: inherit; font-family: Roboto, sans-serif; font-size: 12px; font-weight: 200;" x="790.6189082752574" y="0" dx="0em" dy="0.95em" fill="rgb(255, 255, 255)" stroke="none" stroke-width="1px">1k</text><text style="text-anchor: middle; visibility: inherit; font-family: Roboto, sans-serif; font-size: 12px; font-weight: 200;" x="922.3887263211337" y="0" dx="0em" dy="0.95em" fill="rgb(255, 255, 255)" stroke="none" stroke-width="1px">1.2k</text><text style="text-anchor: middle; visibility: inherit; font-family: Roboto, sans-serif; font-size: 12px; font-weight: 200;" x="1054.1585443670099" y="0" dx="0em" dy="0.95em" fill="rgb(255, 255, 255)" stroke="none" stroke-width="1px">1.4k</text><text style="text-anchor: middle; visibility: inherit; font-family: Roboto, sans-serif; font-size: 12px; font-weight: 200;" x="1185.9283624128864" y="0" dx="0em" dy="0.95em" fill="rgb(255, 255, 255)" stroke="none" stroke-width="1px">1.6k</text><text style="text-anchor: middle; visibility: inherit; font-family: Roboto, sans-serif; font-size: 12px; font-weight: 200;" x="1317.6981804587624" y="0" dx="0em" dy="0.95em" fill="rgb(255, 255, 255)" stroke="none" stroke-width="1px">1.8k</text><text style="text-anchor: middle; visibility: hidden; font-family: Roboto, sans-serif; font-size: 12px; font-weight: 200;" x="1449.4679985046387" y="0" dx="0em" dy="0.95em" fill="rgb(255, 255, 255)" stroke="none" stroke-width="1px">2k</text></g><line x1="0" y1="0" x2="1449.4679985046387" y2="0" fill="rgb(0, 0, 0)" stroke="rgb(204, 204, 204)" stroke-width="1px"></line></g></g></g></g></svg>