<svg viewBox="0 0 1501 400" xmlns="http://www.w3.org/2000/svg"><g><g><g><g><g><line x1="51.53200149536133" y1="376.8999996185303" x2="46.53200149536133" y2="376.8999996185303" style="visibility: inherit;" fill="rgb(0, 0, 0)" stroke="rgb(204, 204, 204)" stroke-width="1px"></line><line x1="51.53200149536133" y1="345.4916663169861" x2="46.53200149536133" y2="345.4916663169861" style="visibility: inherit;" fill="rgb(0, 0, 0)" stroke="rgb(204, 204, 204)" stroke-width="1px"></line><line x1="51.53200149536133" y1="314.0833330154419" x2="46.53200149536133" y2="314.0833330154419" style="visibility: inherit;" fill="rgb(0, 0, 0)" stroke="rgb(204, 204, 204)" stroke-width="1px"></line><line x1="51.53200149536133" y1="282.6749997138977" x2="46.53200149536133" y2="282.6749997138977" style="visibility: inherit;" fill="rgb(0, 0, 0)" stroke="rgb(204, 204, 204)" stroke-width="1px"></line><line x1="51.53200149536133" y1="251.26666641235354" x2="46.53200149536133" y2="251.26666641235354" style="visibility: inherit;" fill="rgb(0, 0, 0)" stroke="rgb(204, 204, 204)" stroke-width="1px"></line><line x1="51.53200149536133" y1="219.8583331108093" x2="46.53200149536133" y2="219.8583331108093" style="visibility: inherit;" fill="rgb(0, 0, 0)" stroke="rgb(204, 204, 204)" stroke-width="1px"></line><line x1="51.53200149536133" y1="188.4499998092651" x2="46.53200149536133" y2="188.4499998092651" style="visibility: inherit;" fill="rgb(0, 0, 0)" stroke="rgb(204, 204, 204)" stroke-width="1px"></line><line x1="51.53200149536133" y1="157.04166650772095" x2="46.53200149536133" y2="157.04166650772095" style="visibility: inherit;" fill="rgb(0, 0, 0)" stroke="rgb(204, 204, 204)" stroke-width="1px"></line><line x1="51.53200149536133" y1="125.63333320617673" x2="46.53200149536133" y2="125.63333320617673" style="visibility: inherit;" fill="rgb(0, 0, 0)" stroke="rgb(204, 204, 204)" stroke-width="1px"></line><line x1="51.53200149536133" y1="94.22499990463257" x2="46.53200149536133" y2="94.22499990463257" style="visibility: inherit;" fill="rgb(0, 0, 0)" stroke="rgb(204, 204, 204)" stroke-width="1px"></line><line x1="51.53200149536133" y1="62.816666603088365" x2="46.53200149536133" y2="62.816666603088365" style="visibility: inherit;" fill="rgb(0, 0, 0)" stroke="rgb(204, 204, 204)" stroke-width="1px"></line><line x1="51.53200149536133" y1="31.408333301544204" x2="46.53200149536133" y2="31.408333301544204" style="visibility: inherit;" fill="rgb(0, 0, 0)" stroke="rgb(204, 204, 204)" stroke-width="1px"></line><line x1="51.53200149536133" y1="0" x2="46.53200149536133" y2="0" style="visibility: inherit;" fill="rgb(0, 0, 0)" stroke="rgb(204, 204, 204)" stroke-width="1px"></line></g><g transform="translate(41.53200149536133, 0)"><text style="text-anchor: end; visibility: hidden; font-family: Roboto, sans-serif; font-size: 12px; font-weight: 200;" x="0" y="376.8999996185303" dx="0em" dy="0.3em" fill="rgb(255, 255, 255)" stroke="none" stroke-width="1px">0.15</text><text style="text-anchor: end; visibility: inherit; font-family: Roboto, sans-serif; font-size: 12px; font-weight: 200;" x="0" y="345.4916663169861" dx="0em" dy="0.3em" fill="rgb(255, 255, 255)" stroke="none" stroke-width="1px">0.2</text><text style="text-anchor: end; visibility: inherit; font-family: Roboto, sans-serif; font-size: 12px; font-weight: 200;" x="0" y="314.0833330154419" dx="0em" dy="0.3em" fill="rgb(255, 255, 255)" stroke="none" stroke-width="1px">0.25</text><text style="text-anchor: end; visibility: inherit; font-family: Roboto, sans-serif; font-size: 12px; font-weight: 200;" x="0" y="282.6749997138977" dx="0em" dy="0.3em" fill="rgb(255, 255, 255)" stroke="none" stroke-width="1px">0.3</text><text style="text-anchor: end; visibility: inherit; font-family: Roboto, sans-serif; font-size: 12px; font-weight: 200;" x="0" y="251.26666641235354" dx="0em" dy="0.3em" fill="rgb(255, 255, 255)" stroke="none" stroke-width="1px">0.35</text><text style="text-anchor: end; visibility: inherit; font-family: Roboto, sans-serif; font-size: 12px; font-weight: 200;" x="0" y="219.8583331108093" dx="0em" dy="0.3em" fill="rgb(255, 255, 255)" stroke="none" stroke-width="1px">0.4</text><text style="text-anchor: end; visibility: inherit; font-family: Roboto, sans-serif; font-size: 12px; font-weight: 200;" x="0" y="188.4499998092651" dx="0em" dy="0.3em" fill="rgb(255, 255, 255)" stroke="none" stroke-width="1px">0.45</text><text style="text-anchor: end; visibility: inherit; font-family: Roboto, sans-serif; font-size: 12px; font-weight: 200;" x="0" y="157.04166650772095" dx="0em" dy="0.3em" fill="rgb(255, 255, 255)" stroke="none" stroke-width="1px">0.5</text><text style="text-anchor: end; visibility: inherit; font-family: Roboto, sans-serif; font-size: 12px; font-weight: 200;" x="0" y="125.63333320617673" dx="0em" dy="0.3em" fill="rgb(255, 255, 255)" stroke="none" stroke-width="1px">0.55</text><text style="text-anchor: end; visibility: inherit; font-family: Roboto, sans-serif; font-size: 12px; font-weight: 200;" x="0" y="94.22499990463257" dx="0em" dy="0.3em" fill="rgb(255, 255, 255)" stroke="none" stroke-width="1px">0.6</text><text style="text-anchor: end; visibility: inherit; font-family: Roboto, sans-serif; font-size: 12px; font-weight: 200;" x="0" y="62.816666603088365" dx="0em" dy="0.3em" fill="rgb(255, 255, 255)" stroke="none" stroke-width="1px">0.65</text><text style="text-anchor: end; visibility: inherit; font-family: Roboto, sans-serif; font-size: 12px; font-weight: 200;" x="0" y="31.408333301544204" dx="0em" dy="0.3em" fill="rgb(255, 255, 255)" stroke="none" stroke-width="1px">0.7</text><text style="text-anchor: end; visibility: hidden; font-family: Roboto, sans-serif; font-size: 12px; font-weight: 200;" x="0" y="0" dx="0em" dy="0.3em" fill="rgb(255, 255, 255)" stroke="none" stroke-width="1px">0.75</text></g><line x1="51.53200149536133" y1="0" x2="51.53200149536133" y2="376.8999996185303" fill="rgb(0, 0, 0)" stroke="rgb(204, 204, 204)" stroke-width="1px"></line></g></g><g transform="translate(51, 0)" clip-path="url(#clip_0)"><clipPath id="clip_0"><rect width="1449" height="376"></rect></clipPath><g><g><g><line x1="0" y1="0" x2="0" y2="376.8999996185303" fill="rgb(0, 0, 0)" stroke="rgb(189, 189, 189)" stroke-width="1px" opacity="0.25"></line><line x1="120.78899987538655" y1="0" x2="120.78899987538655" y2="376.8999996185303" fill="rgb(0, 0, 0)" stroke="rgb(189, 189, 189)" stroke-width="1px" opacity="0.25"></line><line x1="241.5779997507731" y1="0" x2="241.5779997507731" y2="376.8999996185303" fill="rgb(0, 0, 0)" stroke="rgb(189, 189, 189)" stroke-width="1px" opacity="0.25"></line><line x1="362.36699962615967" y1="0" x2="362.36699962615967" y2="376.8999996185303" fill="rgb(0, 0, 0)" stroke="rgb(189, 189, 189)" stroke-width="1px" opacity="0.25"></line><line x1="483.1559995015462" y1="0" x2="483.1559995015462" y2="376.8999996185303" fill="rgb(0, 0, 0)" stroke="rgb(189, 189, 189)" stroke-width="1px" opacity="0.25"></line><line x1="603.9449993769329" y1="0" x2="603.9449993769329" y2="376.8999996185303" fill="rgb(0, 0, 0)" stroke="rgb(189, 189, 189)" stroke-width="1px" opacity="0.25"></line><line x1="724.7339992523193" y1="0" x2="724.7339992523193" y2="376.8999996185303" fill="rgb(0, 0, 0)" stroke="rgb(189, 189, 189)" stroke-width="1px" opacity="0.25"></line><line x1="845.5229991277059" y1="0" x2="845.5229991277059" y2="376.8999996185303" fill="rgb(0, 0, 0)" stroke="rgb(189, 189, 189)" stroke-width="1px" opacity="0.25"></line><line x1="966.3119990030924" y1="0" x2="966.3119990030924" y2="376.8999996185303" fill="rgb(0, 0, 0)" stroke="rgb(189, 189, 189)" stroke-width="1px" opacity="0.25"></line><line x1="1087.100998878479" y1="0" x2="1087.100998878479" y2="376.8999996185303" fill="rgb(0, 0, 0)" stroke="rgb(189, 189, 189)" stroke-width="1px" opacity="0.25"></line><line x1="1207.8899987538657" y1="0" x2="1207.8899987538657" y2="376.8999996185303" fill="rgb(0, 0, 0)" stroke="rgb(189, 189, 189)" stroke-width="1px" opacity="0.25"></line><line x1="1328.678998629252" y1="0" x2="1328.678998629252" y2="376.8999996185303" fill="rgb(0, 0, 0)" stroke="rgb(189, 189, 189)" stroke-width="1px" opacity="0.25"></line><line x1="1449.4679985046387" y1="0" x2="1449.4679985046387" y2="376.8999996185303" fill="rgb(0, 0, 0)" stroke="rgb(189, 189, 189)" stroke-width="1px" opacity="0.25"></line></g><g><line x1="0" y1="376.8999996185303" x2="1449.4679985046387" y2="376.8999996185303" fill="rgb(0, 0, 0)" stroke="rgb(189, 189, 189)" stroke-width="1px" opacity="0.25"></line><line x1="0" y1="345.4916663169861" x2="1449.4679985046387" y2="345.4916663169861" fill="rgb(0, 0, 0)" stroke="rgb(189, 189, 189)" stroke-width="1px" opacity="0.25"></line><line x1="0" y1="314.0833330154419" x2="1449.4679985046387" y2="314.0833330154419" fill="rgb(0, 0, 0)" stroke="rgb(189, 189, 189)" stroke-width="1px" opacity="0.25"></line><line x1="0" y1="282.6749997138977" x2="1449.4679985046387" y2="282.6749997138977" fill="rgb(0, 0, 0)" stroke="rgb(189, 189, 189)" stroke-width="1px" opacity="0.25"></line><line x1="0" y1="251.26666641235354" x2="1449.4679985046387" y2="251.26666641235354" fill="rgb(0, 0, 0)" stroke="rgb(189, 189, 189)" stroke-width="1px" opacity="0.25"></line><line x1="0" y1="219.8583331108093" x2="1449.4679985046387" y2="219.8583331108093" fill="rgb(0, 0, 0)" stroke="rgb(189, 189, 189)" stroke-width="1px" opacity="0.25"></line><line x1="0" y1="188.4499998092651" x2="1449.4679985046387" y2="188.4499998092651" fill="rgb(0, 0, 0)" stroke="rgb(189, 189, 189)" stroke-width="1px" opacity="0.25"></line><line x1="0" y1="157.04166650772095" x2="1449.4679985046387" y2="157.04166650772095" fill="rgb(0, 0, 0)" stroke="rgb(189, 189, 189)" stroke-width="1px" opacity="0.25"></line><line x1="0" y1="125.63333320617673" x2="1449.4679985046387" y2="125.63333320617673" fill="rgb(0, 0, 0)" stroke="rgb(189, 189, 189)" stroke-width="1px" opacity="0.25"></line><line x1="0" y1="94.22499990463257" x2="1449.4679985046387" y2="94.22499990463257" fill="rgb(0, 0, 0)" stroke="rgb(189, 189, 189)" stroke-width="1px" opacity="0.25"></line><line x1="0" y1="62.816666603088365" x2="1449.4679985046387" y2="62.816666603088365" fill="rgb(0, 0, 0)" stroke="rgb(189, 189, 189)" stroke-width="1px" opacity="0.25"></line><line x1="0" y1="31.408333301544204" x2="1449.4679985046387" y2="31.408333301544204" fill="rgb(0, 0, 0)" stroke="rgb(189, 189, 189)" stroke-width="1px" opacity="0.25"></line><line x1="0" y1="0" x2="1449.4679985046387" y2="0" fill="rgb(0, 0, 0)" stroke="rgb(189, 189, 189)" stroke-width="1px" opacity="0.25"></line></g></g></g><g><g><line x1="0" y1="471.12499952316284" x2="1449.4679985046387" y2="471.12499952316284" fill="rgb(0, 0, 0)" stroke="rgb(153, 153, 153)" stroke-width="1.5px"></line></g></g><g><g><line x1="120.78899987538655" y1="0" x2="120.78899987538655" y2="376.8999996185303" fill="rgb(0, 0, 0)" stroke="rgb(153, 153, 153)" stroke-width="1.5px"></line></g></g><g><g><g><g><g><path style="fill: none;" stroke="rgb(0, 153, 136)" stroke-width="2px" d="M125.37898187065123,358.2513017207384L130.2105418656667,349.04964157380164L135.04210186068215,341.22510063252884L139.87366185569763,315.2200086806517L144.7052218507131,316.85553800627474L149.53678184572857,309.5151189231603L154.36834184074402,307.3559191218211L159.19990183575948,290.12730175188005L164.03146183077493,291.87524618453585L168.8630218257904,269.21311839460606L173.69458182080587,251.76352265909082L178.52614181582132,237.3997633972613L183.3577018108368,211.1112525158088L188.18926180585225,207.14749943272187L193.0208218008677,198.8794037163437L197.8523817958832,197.84818456541035L202.68394179089864,201.15634561695478L207.5155017859141,167.80291995002364L212.34706178092955,151.7193135147999L217.17862177594503,138.1435917112977L222.0101817709605,139.8137957750116L226.84174176597594,152.59417477966093L231.6733017609914,117.07549517355356L236.50486175600685,127.17294905876803L241.33642175102236,109.67507382118828L246.1679817460378,103.10242887656538L250.99954174105326,108.97396328771444L255.83110173606872,134.09012249344477L260.6626617310842,115.78844171693027L265.4942217260997,128.3636927506135L270.3257817211151,124.13071504120384L275.1573417161306,109.81280284944539L279.988901711146,120.85226551452557L284.8204617061615,111.7717756754788L289.652021701177,112.21254453383418L294.4835816961924,114.440026695592L299.3151416912079,115.77651597794255L304.14670168622337,96.94820115570346L308.9782616812388,75.83610812850476L313.8098216762543,71.02093567817079L318.6413816712697,56.35370721456425L323.47294166628524,65.22055763454965L328.30450166130066,86.24483453911657L333.13606165631614,85.11825485616548L337.96762165133157,80.5162653834186L342.79918164634705,69.90298837420083L347.63074164136253,79.23918882045359L352.46230163637796,82.87788825659108L357.29386163139344,87.41672692520466L362.12542162640887,101.52555693889967L366.95698162142435,90.36064663348337L371.78854161643983,77.77263795621154L376.6201016114553,83.96097856932137L381.45166160647074,81.78492044313478L386.2832216014862,78.51626473607656L391.11478159650164,54.961842167023036L395.9463415915171,56.53335527637233L400.7779015865326,65.32834646736875L405.60946158154803,68.64232035061926L410.4410215765635,64.74164218652945L415.27258157157894,62.40123528807573L420.1041415665944,64.92303281169669L424.93570156160996,52.69496550644349L429.76726155662533,49.2841667859847L434.59882155164087,45.2746667223629L439.43038154665624,48.75802917822936L444.2619415416717,64.58919247117484L449.09350153668726,56.420702964823455L453.9250615317026,65.26075508043823L458.75662152671816,64.67572385576753L463.58818152173365,70.21376761500476L468.41974151674907,59.79544805112143L473.25130151176455,71.21164379490997L478.08286150678,60.39417375906459L482.91442150179546,53.903691737557395L487.74598149681094,67.6765900067716L492.57754149182637,75.94032896830016L497.40910148684185,65.19440569444524L502.2406614818573,56.78383089878571L507.07222147687276,41.92238186465741L511.90378147188824,40.85759576956654L516.7353414669037,50.03382826924456L521.5669014619192,47.6874844436653L526.3984614569347,54.13176147370384L531.23002145195,46.22020270364789L536.0615814469655,80.73368406854459L540.893141441981,83.77458540536396L545.7247014369965,95.41423036418813L550.556261432012,82.7678090260175L555.3878214270273,86.9580812111942L560.2193814220428,91.43526535364678L565.0509414170583,100.01063833315777L569.8825014120738,95.34075796413184L574.7140614070893,70.9456005979047L579.5456214021046,70.04965199759395L584.3771813971201,77.36416616279364L589.2087413921356,79.78985383056687L594.0403013871511,41.59225162869539L598.8718613821666,56.36368427876139L603.7034213771819,51.4853980493754L608.5349813721974,68.18863462520895L613.366541367213,70.35849324532309L618.1981013622284,50.06717927257988L623.0296613572439,57.522599202399086L627.8612213522592,73.77397614836968L632.6927813472748,89.41386480999152L637.5243413422903,73.27852719946002L642.3559013373057,79.30149128391318L647.1874613323212,78.9892280718921L652.0190213273366,80.76489097602595L656.8505813223521,81.83028871850625L661.6821413173676,86.39556902668745L666.513701312383,81.28265388621014L671.3452613073985,78.2149048019238L676.1768213024139,56.7440470378869L681.0083812974294,69.38080318696935L685.8399412924449,71.07379438237933L690.6715012874603,74.05260993097185L695.5030612824758,60.13573260935515L700.3346212774912,32.155397902919994L705.1661812725067,31.071363729831077L709.9977412675222,42.19906821405675L714.8293012625376,56.72777422997826L719.660861257553,67.40801867087764L724.4924212525685,71.85314450407077L729.323981247584,74.52022000398662L734.1555412425994,82.00952779797571L738.987101237615,82.57707081167617L743.8186612326303,73.10249246316387L748.6502212276458,81.15889127348207L753.4817812226614,70.28856390890093L758.3133412176768,65.72938832149873L763.1449012126922,76.73502878848296L767.9764612077078,79.41237140598047L772.8080212027232,81.018776976479L777.6395811977386,83.9456411501246L782.4711411927542,79.81269716027244L787.3027011877696,71.44386827232161L792.134261182785,70.34861260224416L796.9658211778004,71.65448003154422L801.797381172816,62.62289633239167L806.6289411678314,51.314883618860605L811.4605011628469,46.49309682208845L816.2920611578623,59.30419139479728L821.1236211528778,63.06480647572951L825.9551811478932,71.2102380183284L830.7867411429088,67.85281544289656L835.6183011379242,56.415855916510054L840.4498611329396,61.33180518875717L845.2814211279552,74.09647890883805L850.1129811229706,58.19903316472843L854.944541117986,46.697544886916155L859.7761011130015,81.02008937850546L864.607661108017,97.6875744107661L869.4392211030324,88.0578571166573L874.2707810980478,86.20606840288508L879.1023410930634,71.35384935519613L883.9339010880789,68.33158042062236L888.7654610830942,76.33332321661058L893.5970210781098,83.09738972555007L898.4285810731252,96.97093378764635L903.2601410681407,109.22110188759714L908.091701063156,85.16286944602338L912.9232610581716,72.69095081242564L917.754821053187,59.318737138227476L922.5863810482025,55.22145059640162L927.417941043218,82.20839114150375L932.2495010382335,63.06618050432785L937.0810610332488,47.65481245932925L941.9126210282644,58.03819994579526L946.7441810232798,40.71198246151674L951.5757410182953,57.79854360980077L956.4073010133109,87.68068861223627L961.2388610083262,85.9797673002325L966.0704210033416,92.81129783841624L970.9019809983571,85.13209117324742L975.7335409933727,86.41362966818566L980.565100988388,75.40442777706956L985.3966609834034,70.76192747374641L990.228220978419,67.97642729175251L995.0597809734345,62.379085519863175L999.8913409684499,57.057659625382996L1004.7229009634655,49.93876242600192L1009.5544609584808,61.371590757145356L1014.3860209534963,58.41618359909891L1019.2175809485118,66.45804346100354L1024.0491409435272,67.35711771545327L1028.8807009385428,97.34187473832083L1033.7122609335581,91.77647897588322L1038.5438209285737,64.88099154226252L1043.375380923589,46.78067825074356L1048.2069409186045,39.84653193852521L1053.03850091362,61.205314958698864L1057.8700609086354,75.98360560214958L1062.7016209036508,65.22037167475487L1067.5331808986664,76.8222169760418L1072.3647408936818,91.24280930659484L1077.1963008886974,62.59776890934289L1082.027860883713,55.22584882772435L1086.8594208787283,64.5438425981788L1091.6909808737437,62.28255553506547L1096.522540868759,68.77786662258347L1101.3541008637746,64.82296994970828L1106.18566085879,66.37607360867615L1111.0172208538054,63.38189414136387L1115.848780848821,59.622365629629975L1120.6803408438366,73.07081517336172L1125.511900838852,81.13988489960074L1130.3434608338675,66.35111842187905L1135.175020828883,65.32994186063205L1140.0065808238983,54.90213176715136L1144.8381408189139,78.09075818126057L1149.6697008139292,68.44768405356804L1154.5012608089446,72.47694373368506L1159.3328208039602,53.30127039694358L1164.1643807989756,55.5370122143243L1168.9959407939912,66.69356146148523L1173.8275007890065,59.64634519035628L1178.6590607840221,61.307077921718395L1183.4906207790375,79.97070504265427L1188.3221807740529,67.61263133905771L1193.1537407690685,71.97591210497879L1197.9853007640838,66.74179723914543L1202.8168607590992,59.67528665695234L1207.6484207541148,57.398401138983026L1212.4799807491304,63.88435315358755L1217.3115407441458,54.03477854292461L1222.1431007391611,73.64430458403156L1226.9746607341767,55.96470773849805L1231.806220729192,66.95017877598956L1236.6377807242075,59.80031557905886L1241.469340719223,73.17758514301906L1246.3009007142384,67.46280106196953L1251.1324607092538,48.32976396256773L1255.9640207042694,54.517129185045306L1260.795580699285,62.15558998122486L1265.6271406943004,54.96054147085353L1270.4587006893157,66.34767901540282L1275.2902606843313,82.99506569886493L1280.1218206793467,65.50120607009104L1284.953380674362,74.63509860629185L1289.7849406693776,60.48522581454719L1294.616500664393,63.773427127579424L1299.4480606594086,77.52447290347787L1304.279620654424,90.48635335958066" fill="none"></path></g></g></g></g><g opacity="0.2"><g><g><g><path style="fill: none;" stroke="rgb(0, 153, 136)" stroke-width="2px" d="M125.37898187065123,358.2513017207384L130.2105418656667,343.5286454856396L135.04210186068215,333.713541328907L139.87366185569763,284.6380205452442L144.7052218507131,318.9908850938082L149.53678184572857,299.36067678034306L154.36834184074402,304.26822885870934L159.19990183575948,265.0078122317791L164.03146183077493,294.4531247019768L168.8630218257904,235.56249976158142L173.69458182080587,225.74739560484883L178.52614181582132,215.93229144811633L183.3577018108368,171.7643227428198L188.18926180585225,201.2096352130175L193.0208218008677,186.48697897791862L197.8523817958832,196.30208313465118L202.68394179089864,206.11718729138374L207.5155017859141,117.78124988079071L212.34706178092955,127.59635403752326L217.17862177594503,117.78124988079071L222.0101817709605,142.3190102726221L226.84174176597594,171.7643227428198L231.6733017609914,63.79817701876165L236.50486175600685,142.3190102726221L241.33642175102236,83.42838533222674L246.1679817460378,93.24348948895933L250.99954174105326,117.78124988079071L255.83110173606872,171.7643227428198L260.6626617310842,88.33593741059303L265.4942217260997,147.2265623509884L270.3257817211151,117.78124988079071L275.1573417161306,88.33593741059303L279.988901711146,137.41145819425583L284.8204617061615,98.15104156732558L289.652021701177,112.87369780242442L294.4835816961924,117.78124988079071L299.3151416912079,117.78124988079071L304.14670168622337,68.7057290971279L308.9782616812388,44.167968705296516L313.8098216762543,63.79817701876165L318.6413816712697,34.35286454856397L323.47294166628524,78.52083325386049L328.30450166130066,117.78124988079071L333.13606165631614,83.42838533222674L337.96762165133157,73.6132811754942L342.79918164634705,53.98307286202906L347.63074164136253,93.24348948895933L352.46230163637796,88.33593741059303L357.29386163139344,94.22498492797219L362.12542162640887,122.688801959157L366.95698162142435,73.6132811754942L371.78854161643983,58.890624940395355L376.6201016114553,93.24348948895933L381.45166160647074,78.52083325386049L386.2832216014862,73.6132811754942L391.11478159650164,19.630208313465133L395.9463415915171,58.890624940395355L400.7779015865326,78.52083325386049L405.60946158154803,73.6132811754942L410.4410215765635,58.890624940395355L415.27258157157894,58.890624940395355L420.1041415665944,68.7057290971279L424.93570156160996,34.35286454856397L429.76726155662533,44.167968705296516L434.59882155164087,39.26041662693022L439.43038154665624,53.98307286202906L444.2619415416717,88.33593741059303L449.09350153668726,44.167968705296516L453.9250615317026,78.52083325386049L458.75662152671816,63.79817701876165L463.58818152173365,78.52083325386049L468.41974151674907,44.167968705296516L473.25130151176455,88.33593741059303L478.08286150678,44.167968705296516L482.91442150179546,44.167968705296516L487.74598149681094,88.33593741059303L492.57754149182637,88.33593741059303L497.40910148684185,49.07552078366281L502.2406614818573,44.167968705296516L507.07222147687276,19.630208313465133L511.90378147188824,39.26041662693022L516.7353414669037,63.79817701876165L521.5669014619192,44.167968705296516L526.3984614569347,63.79817701876165L531.23002145195,34.35286454856397L536.0615814469655,132.50390611588955L540.893141441981,88.33593741059303L545.7247014369965,112.87369780242442L550.556261432012,63.79817701876165L555.3878214270273,93.24348948895933L560.2193814220428,98.15104156732558L565.0509414170583,112.87369780242442L569.8825014120738,88.33593741059303L574.7140614070893,34.35286454856397L579.5456214021046,68.7057290971279L584.3771813971201,88.33593741059303L589.2087413921356,83.42838533222674L594.0403013871511,-15.7041516741117L598.8718613821666,78.52083325386049L603.7034213771819,44.167968705296516L608.5349813721974,93.24348948895933L613.366541367213,73.6132811754942L618.1981013622284,19.630208313465133L623.0296613572439,68.7057290971279L627.8612213522592,98.15104156732558L632.6927813472748,112.87369780242442L637.5243413422903,49.07552078366281L642.3559013373057,88.33593741059303L647.1874613323212,78.52083325386049L652.0190213273366,83.42838533222674L656.8505813223521,83.42838533222674L661.6821413173676,93.24348948895933L666.513701312383,73.6132811754942L671.3452613073985,73.6132811754942L676.1768213024139,24.537760391831384L681.0083812974294,88.33593741059303L685.8399412924449,73.6132811754942L690.6715012874603,78.52083325386049L695.5030612824758,39.26041662693022L700.3346212774912,-9.815104156732588L705.1661812725067,29.445312470197678L709.9977412675222,58.890624940395355L714.8293012625376,78.52083325386049L719.660861257553,83.42838533222674L724.4924212525685,78.52083325386049L729.323981247584,78.52083325386049L734.1555412425994,93.24348948895933L738.987101237615,83.42838533222674L743.8186612326303,58.890624940395355L748.6502212276458,93.24348948895933L753.4817812226614,53.98307286202906L758.3133412176768,58.890624940395355L763.1449012126922,93.24348948895933L767.9764612077078,83.42838533222674L772.8080212027232,83.42838533222674L777.6395811977386,88.33593741059303L782.4711411927542,73.6132811754942L787.3027011877696,58.890624940395355L792.134261182785,68.7057290971279L796.9658211778004,73.6132811754942L801.797381172816,49.07552078366281L806.6289411678314,34.35286454856397L811.4605011628469,39.26041662693022L816.2920611578623,78.52083325386049L821.1236211528778,68.7057290971279L825.9551811478932,83.42838533222674L830.7867411429088,62.81668157974879L835.6183011379242,39.26041662693022L840.4498611329396,68.7057290971279L845.2814211279552,93.24348948895933L850.1129811229706,34.35286454856397L854.944541117986,29.445312470197678L859.7761011130015,132.50390611588955L864.607661108017,122.688801959157L869.4392211030324,73.6132811754942L874.2707810980478,83.42838533222674L879.1023410930634,49.07552078366281L883.9339010880789,63.79817701876165L888.7654610830942,88.33593741059303L893.5970210781098,93.24348948895933L898.4285810731252,117.78124988079071L903.2601410681407,127.59635403752326L908.091701063156,49.07552078366281L912.9232610581716,53.98307286202906L917.754821053187,39.26041662693022L922.5863810482025,49.07552078366281L927.417941043218,122.688801959157L932.2495010382335,34.35286454856397L937.0810610332488,24.537760391831384L941.9126210282644,73.6132811754942L946.7441810232798,14.722656235098839L951.5757410182953,83.42838533222674L956.4073010133109,132.50390611588955L961.2388610083262,83.42838533222674L966.0704210033416,103.05859364569187L970.9019809983571,73.6132811754942L975.7335409933727,88.33593741059303L980.565100988388,58.890624940395355L985.3966609834034,63.79817701876165L990.228220978419,63.79817701876165L995.0597809734345,53.98307286202906L999.8913409684499,49.07552078366281L1004.7229009634655,39.26041662693022L1009.5544609584808,78.52083325386049L1014.3860209534963,53.98307286202906L1019.2175809485118,78.52083325386049L1024.0491409435272,68.7057290971279L1028.8807009385428,142.3190102726221L1033.7122609335581,83.42838533222674L1038.5438209285737,24.537760391831384L1043.375380923589,19.630208313465133L1048.2069409186045,29.445312470197678L1053.03850091362,93.24348948895933L1057.8700609086354,98.15104156732558L1062.7016209036508,49.07552078366281L1067.5331808986664,94.22498492797219L1072.3647408936818,112.87369780242442L1077.1963008886974,19.630208313465133L1082.027860883713,44.167968705296516L1086.8594208787283,78.52083325386049L1091.6909808737437,58.890624940395355L1096.522540868759,78.52083325386049L1101.3541008637746,58.890624940395355L1106.18566085879,68.7057290971279L1111.0172208538054,58.890624940395355L1115.848780848821,53.98307286202906L1120.6803408438366,93.24348948895933L1125.511900838852,93.24348948895933L1130.3434608338675,44.167968705296516L1135.175020828883,63.79817701876165L1140.0065808238983,39.26041662693022L1144.8381408189139,112.87369780242442L1149.6697008139292,53.98307286202906L1154.5012608089446,78.52083325386049L1159.3328208039602,24.537760391831384L1164.1643807989756,58.890624940395355L1168.9959407939912,83.42838533222674L1173.8275007890065,49.07552078366281L1178.6590607840221,63.79817701876165L1183.4906207790375,107.96614572405817L1188.3221807740529,49.07552078366281L1193.1537407690685,78.52083325386049L1197.9853007640838,58.890624940395355L1202.8168607590992,49.07552078366281L1207.6484207541148,53.98307286202906L1212.4799807491304,73.6132811754942L1217.3115407441458,39.26041662693022L1222.1431007391611,103.05859364569187L1226.9746607341767,29.445312470197678L1231.806220729192,83.42838533222674L1236.6377807242075,49.07552078366281L1241.469340719223,93.24348948895933L1246.3009007142384,58.890624940395355L1251.1324607092538,19.630208313465133L1255.9640207042694,63.79817701876165L1260.795580699285,73.6132811754942L1265.6271406943004,44.167968705296516L1270.4587006893157,83.42838533222674L1275.2902606843313,107.96614572405817L1280.1218206793467,39.26041662693022L1284.953380674362,88.33593741059303L1289.7849406693776,39.26041662693022L1294.616500664393,68.7057290971279L1299.4480606594086,98.15104156732558L1304.279620654424,109.92917404373486" fill="none"></path></g></g></g></g></g></g><g transform="translate(51, 376)" clip-path="url(#clip_1)"><clipPath id="clip_1"><rect width="1449" height="23"></rect></clipPath><g><g><line x1="0" y1="0" x2="0" y2="5" style="visibility: inherit;" fill="rgb(0, 0, 0)" stroke="rgb(204, 204, 204)" stroke-width="1px"></line><line x1="120.78899987538655" y1="0" x2="120.78899987538655" y2="5" style="visibility: inherit;" fill="rgb(0, 0, 0)" stroke="rgb(204, 204, 204)" stroke-width="1px"></line><line x1="241.5779997507731" y1="0" x2="241.5779997507731" y2="5" style="visibility: inherit;" fill="rgb(0, 0, 0)" stroke="rgb(204, 204, 204)" stroke-width="1px"></line><line x1="362.36699962615967" y1="0" x2="362.36699962615967" y2="5" style="visibility: inherit;" fill="rgb(0, 0, 0)" stroke="rgb(204, 204, 204)" stroke-width="1px"></line><line x1="483.1559995015462" y1="0" x2="483.1559995015462" y2="5" style="visibility: inherit;" fill="rgb(0, 0, 0)" stroke="rgb(204, 204, 204)" stroke-width="1px"></line><line x1="603.9449993769329" y1="0" x2="603.9449993769329" y2="5" style="visibility: inherit;" fill="rgb(0, 0, 0)" stroke="rgb(204, 204, 204)" stroke-width="1px"></line><line x1="724.7339992523193" y1="0" x2="724.7339992523193" y2="5" style="visibility: inherit;" fill="rgb(0, 0, 0)" stroke="rgb(204, 204, 204)" stroke-width="1px"></line><line x1="845.5229991277059" y1="0" x2="845.5229991277059" y2="5" style="visibility: inherit;" fill="rgb(0, 0, 0)" stroke="rgb(204, 204, 204)" stroke-width="1px"></line><line x1="966.3119990030924" y1="0" x2="966.3119990030924" y2="5" style="visibility: inherit;" fill="rgb(0, 0, 0)" stroke="rgb(204, 204, 204)" stroke-width="1px"></line><line x1="1087.100998878479" y1="0" x2="1087.100998878479" y2="5" style="visibility: inherit;" fill="rgb(0, 0, 0)" stroke="rgb(204, 204, 204)" stroke-width="1px"></line><line x1="1207.8899987538657" y1="0" x2="1207.8899987538657" y2="5" style="visibility: inherit;" fill="rgb(0, 0, 0)" stroke="rgb(204, 204, 204)" stroke-width="1px"></line><line x1="1328.678998629252" y1="0" x2="1328.678998629252" y2="5" style="visibility: inherit;" fill="rgb(0, 0, 0)" stroke="rgb(204, 204, 204)" stroke-width="1px"></line><line x1="1449.4679985046387" y1="0" x2="1449.4679985046387" y2="5" style="visibility: inherit;" fill="rgb(0, 0, 0)" stroke="rgb(204, 204, 204)" stroke-width="1px"></line></g><g transform="translate(0, 8)"><text style="text-anchor: middle; visibility: hidden; font-family: Roboto, sans-serif; font-size: 12px; font-weight: 200;" x="0" y="0" dx="0em" dy="0.95em" fill="rgb(255, 255, 255)" stroke="none" stroke-width="1px">-500</text><text style="text-anchor: middle; visibility: inherit; font-family: Roboto, sans-serif; font-size: 12px; font-weight: 200;" x="120.78899987538655" y="0" dx="0em" dy="0.95em" fill="rgb(255, 255, 255)" stroke="none" stroke-width="1px">0</text><text style="text-anchor: middle; visibility: inherit; font-family: Roboto, sans-serif; font-size: 12px; font-weight: 200;" x="241.5779997507731" y="0" dx="0em" dy="0.95em" fill="rgb(255, 255, 255)" stroke="none" stroke-width="1px">500</text><text style="text-anchor: middle; visibility: inherit; font-family: Roboto, sans-serif; font-size: 12px; font-weight: 200;" x="362.36699962615967" y="0" dx="0em" dy="0.95em" fill="rgb(255, 255, 255)" stroke="none" stroke-width="1px">1k</text><text style="text-anchor: middle; visibility: inherit; font-family: Roboto, sans-serif; font-size: 12px; font-weight: 200;" x="483.1559995015462" y="0" dx="0em" dy="0.95em" fill="rgb(255, 255, 255)" stroke="none" stroke-width="1px">1.5k</text><text style="text-anchor: middle; visibility: inherit; font-family: Roboto, sans-serif; font-size: 12px; font-weight: 200;" x="603.9449993769329" y="0" dx="0em" dy="0.95em" fill="rgb(255, 255, 255)" stroke="none" stroke-width="1px">2k</text><text style="text-anchor: middle; visibility: inherit; font-family: Roboto, sans-serif; font-size: 12px; font-weight: 200;" x="724.7339992523193" y="0" dx="0em" dy="0.95em" fill="rgb(255, 255, 255)" stroke="none" stroke-width="1px">2.5k</text><text style="text-anchor: middle; visibility: inherit; font-family: Roboto, sans-serif; font-size: 12px; font-weight: 200;" x="845.5229991277059" y="0" dx="0em" dy="0.95em" fill="rgb(255, 255, 255)" stroke="none" stroke-width="1px">3k</text><text style="text-anchor: middle; visibility: inherit; font-family: Roboto, sans-serif; font-size: 12px; font-weight: 200;" x="966.3119990030924" y="0" dx="0em" dy="0.95em" fill="rgb(255, 255, 255)" stroke="none" stroke-width="1px">3.5k</text><text style="text-anchor: middle; visibility: inherit; font-family: Roboto, sans-serif; font-size: 12px; font-weight: 200;" x="1087.100998878479" y="0" dx="0em" dy="0.95em" fill="rgb(255, 255, 255)" stroke="none" stroke-width="1px">4k</text><text style="text-anchor: middle; visibility: inherit; font-family: Roboto, sans-serif; font-size: 12px; font-weight: 200;" x="1207.8899987538657" y="0" dx="0em" dy="0.95em" fill="rgb(255, 255, 255)" stroke="none" stroke-width="1px">4.5k</text><text style="text-anchor: middle; visibility: inherit; font-family: Roboto, sans-serif; font-size: 12px; font-weight: 200;" x="1328.678998629252" y="0" dx="0em" dy="0.95em" fill="rgb(255, 255, 255)" stroke="none" stroke-width="1px">5k</text><text style="text-anchor: middle; visibility: hidden; font-family: Roboto, sans-serif; font-size: 12px; font-weight: 200;" x="1449.4679985046387" y="0" dx="0em" dy="0.95em" fill="rgb(255, 255, 255)" stroke="none" stroke-width="1px">5.5k</text></g><line x1="0" y1="0" x2="1449.4679985046387" y2="0" fill="rgb(0, 0, 0)" stroke="rgb(204, 204, 204)" stroke-width="1px"></line></g></g></g></g></svg>