<svg viewBox="0 0 1501 400" xmlns="http://www.w3.org/2000/svg"><g><g><g><g><g><line x1="41.149001121520996" y1="376.8999996185303" x2="36.149001121520996" y2="376.8999996185303" style="visibility: inherit;" fill="rgb(0, 0, 0)" stroke="rgb(204, 204, 204)" stroke-width="1px"></line><line x1="41.149001121520996" y1="335.022221883138" x2="36.149001121520996" y2="335.022221883138" style="visibility: inherit;" fill="rgb(0, 0, 0)" stroke="rgb(204, 204, 204)" stroke-width="1px"></line><line x1="41.149001121520996" y1="293.14444414774573" x2="36.149001121520996" y2="293.14444414774573" style="visibility: inherit;" fill="rgb(0, 0, 0)" stroke="rgb(204, 204, 204)" stroke-width="1px"></line><line x1="41.149001121520996" y1="251.26666641235352" x2="36.149001121520996" y2="251.26666641235352" style="visibility: inherit;" fill="rgb(0, 0, 0)" stroke="rgb(204, 204, 204)" stroke-width="1px"></line><line x1="41.149001121520996" y1="209.38888867696127" x2="36.149001121520996" y2="209.38888867696127" style="visibility: inherit;" fill="rgb(0, 0, 0)" stroke="rgb(204, 204, 204)" stroke-width="1px"></line><line x1="41.149001121520996" y1="167.511110941569" x2="36.149001121520996" y2="167.511110941569" style="visibility: inherit;" fill="rgb(0, 0, 0)" stroke="rgb(204, 204, 204)" stroke-width="1px"></line><line x1="41.149001121520996" y1="125.63333320617669" x2="36.149001121520996" y2="125.63333320617669" style="visibility: inherit;" fill="rgb(0, 0, 0)" stroke="rgb(204, 204, 204)" stroke-width="1px"></line><line x1="41.149001121520996" y1="83.7555554707845" x2="36.149001121520996" y2="83.7555554707845" style="visibility: inherit;" fill="rgb(0, 0, 0)" stroke="rgb(204, 204, 204)" stroke-width="1px"></line><line x1="41.149001121520996" y1="41.877777735392186" x2="36.149001121520996" y2="41.877777735392186" style="visibility: inherit;" fill="rgb(0, 0, 0)" stroke="rgb(204, 204, 204)" stroke-width="1px"></line><line x1="41.149001121520996" y1="0" x2="36.149001121520996" y2="0" style="visibility: inherit;" fill="rgb(0, 0, 0)" stroke="rgb(204, 204, 204)" stroke-width="1px"></line></g><g transform="translate(31.149001121520996, 0)"><text style="text-anchor: end; visibility: hidden; font-family: Roboto, sans-serif; font-size: 12px; font-weight: 200;" x="0" y="376.8999996185303" dx="0em" dy="0.3em" fill="rgb(255, 255, 255)" stroke="none" stroke-width="1px">0.6</text><text style="text-anchor: end; visibility: inherit; font-family: Roboto, sans-serif; font-size: 12px; font-weight: 200;" x="0" y="335.022221883138" dx="0em" dy="0.3em" fill="rgb(255, 255, 255)" stroke="none" stroke-width="1px">0.8</text><text style="text-anchor: end; visibility: inherit; font-family: Roboto, sans-serif; font-size: 12px; font-weight: 200;" x="0" y="293.14444414774573" dx="0em" dy="0.3em" fill="rgb(255, 255, 255)" stroke="none" stroke-width="1px">1</text><text style="text-anchor: end; visibility: inherit; font-family: Roboto, sans-serif; font-size: 12px; font-weight: 200;" x="0" y="251.26666641235352" dx="0em" dy="0.3em" fill="rgb(255, 255, 255)" stroke="none" stroke-width="1px">1.2</text><text style="text-anchor: end; visibility: inherit; font-family: Roboto, sans-serif; font-size: 12px; font-weight: 200;" x="0" y="209.38888867696127" dx="0em" dy="0.3em" fill="rgb(255, 255, 255)" stroke="none" stroke-width="1px">1.4</text><text style="text-anchor: end; visibility: inherit; font-family: Roboto, sans-serif; font-size: 12px; font-weight: 200;" x="0" y="167.511110941569" dx="0em" dy="0.3em" fill="rgb(255, 255, 255)" stroke="none" stroke-width="1px">1.6</text><text style="text-anchor: end; visibility: inherit; font-family: Roboto, sans-serif; font-size: 12px; font-weight: 200;" x="0" y="125.63333320617669" dx="0em" dy="0.3em" fill="rgb(255, 255, 255)" stroke="none" stroke-width="1px">1.8</text><text style="text-anchor: end; visibility: inherit; font-family: Roboto, sans-serif; font-size: 12px; font-weight: 200;" x="0" y="83.7555554707845" dx="0em" dy="0.3em" fill="rgb(255, 255, 255)" stroke="none" stroke-width="1px">2</text><text style="text-anchor: end; visibility: inherit; font-family: Roboto, sans-serif; font-size: 12px; font-weight: 200;" x="0" y="41.877777735392186" dx="0em" dy="0.3em" fill="rgb(255, 255, 255)" stroke="none" stroke-width="1px">2.2</text><text style="text-anchor: end; visibility: hidden; font-family: Roboto, sans-serif; font-size: 12px; font-weight: 200;" x="0" y="0" dx="0em" dy="0.3em" fill="rgb(255, 255, 255)" stroke="none" stroke-width="1px">2.4</text></g><line x1="41.149001121520996" y1="0" x2="41.149001121520996" y2="376.8999996185303" fill="rgb(0, 0, 0)" stroke="rgb(204, 204, 204)" stroke-width="1px"></line></g></g><g transform="translate(41, 0)" clip-path="url(#clip_0)"><clipPath id="clip_0"><rect width="1459" height="376"></rect></clipPath><g><g><g><line x1="0" y1="0" x2="0" y2="376.8999996185303" fill="rgb(0, 0, 0)" stroke="rgb(189, 189, 189)" stroke-width="1px" opacity="0.25"></line><line x1="121.65424990653992" y1="0" x2="121.65424990653992" y2="376.8999996185303" fill="rgb(0, 0, 0)" stroke="rgb(189, 189, 189)" stroke-width="1px" opacity="0.25"></line><line x1="243.30849981307983" y1="0" x2="243.30849981307983" y2="376.8999996185303" fill="rgb(0, 0, 0)" stroke="rgb(189, 189, 189)" stroke-width="1px" opacity="0.25"></line><line x1="364.96274971961975" y1="0" x2="364.96274971961975" y2="376.8999996185303" fill="rgb(0, 0, 0)" stroke="rgb(189, 189, 189)" stroke-width="1px" opacity="0.25"></line><line x1="486.61699962615967" y1="0" x2="486.61699962615967" y2="376.8999996185303" fill="rgb(0, 0, 0)" stroke="rgb(189, 189, 189)" stroke-width="1px" opacity="0.25"></line><line x1="608.2712495326996" y1="0" x2="608.2712495326996" y2="376.8999996185303" fill="rgb(0, 0, 0)" stroke="rgb(189, 189, 189)" stroke-width="1px" opacity="0.25"></line><line x1="729.9254994392395" y1="0" x2="729.9254994392395" y2="376.8999996185303" fill="rgb(0, 0, 0)" stroke="rgb(189, 189, 189)" stroke-width="1px" opacity="0.25"></line><line x1="851.5797493457794" y1="0" x2="851.5797493457794" y2="376.8999996185303" fill="rgb(0, 0, 0)" stroke="rgb(189, 189, 189)" stroke-width="1px" opacity="0.25"></line><line x1="973.2339992523193" y1="0" x2="973.2339992523193" y2="376.8999996185303" fill="rgb(0, 0, 0)" stroke="rgb(189, 189, 189)" stroke-width="1px" opacity="0.25"></line><line x1="1094.8882491588593" y1="0" x2="1094.8882491588593" y2="376.8999996185303" fill="rgb(0, 0, 0)" stroke="rgb(189, 189, 189)" stroke-width="1px" opacity="0.25"></line><line x1="1216.5424990653992" y1="0" x2="1216.5424990653992" y2="376.8999996185303" fill="rgb(0, 0, 0)" stroke="rgb(189, 189, 189)" stroke-width="1px" opacity="0.25"></line><line x1="1338.196748971939" y1="0" x2="1338.196748971939" y2="376.8999996185303" fill="rgb(0, 0, 0)" stroke="rgb(189, 189, 189)" stroke-width="1px" opacity="0.25"></line><line x1="1459.850998878479" y1="0" x2="1459.850998878479" y2="376.8999996185303" fill="rgb(0, 0, 0)" stroke="rgb(189, 189, 189)" stroke-width="1px" opacity="0.25"></line></g><g><line x1="0" y1="376.8999996185303" x2="1459.850998878479" y2="376.8999996185303" fill="rgb(0, 0, 0)" stroke="rgb(189, 189, 189)" stroke-width="1px" opacity="0.25"></line><line x1="0" y1="335.022221883138" x2="1459.850998878479" y2="335.022221883138" fill="rgb(0, 0, 0)" stroke="rgb(189, 189, 189)" stroke-width="1px" opacity="0.25"></line><line x1="0" y1="293.14444414774573" x2="1459.850998878479" y2="293.14444414774573" fill="rgb(0, 0, 0)" stroke="rgb(189, 189, 189)" stroke-width="1px" opacity="0.25"></line><line x1="0" y1="251.26666641235352" x2="1459.850998878479" y2="251.26666641235352" fill="rgb(0, 0, 0)" stroke="rgb(189, 189, 189)" stroke-width="1px" opacity="0.25"></line><line x1="0" y1="209.38888867696127" x2="1459.850998878479" y2="209.38888867696127" fill="rgb(0, 0, 0)" stroke="rgb(189, 189, 189)" stroke-width="1px" opacity="0.25"></line><line x1="0" y1="167.511110941569" x2="1459.850998878479" y2="167.511110941569" fill="rgb(0, 0, 0)" stroke="rgb(189, 189, 189)" stroke-width="1px" opacity="0.25"></line><line x1="0" y1="125.63333320617669" x2="1459.850998878479" y2="125.63333320617669" fill="rgb(0, 0, 0)" stroke="rgb(189, 189, 189)" stroke-width="1px" opacity="0.25"></line><line x1="0" y1="83.7555554707845" x2="1459.850998878479" y2="83.7555554707845" fill="rgb(0, 0, 0)" stroke="rgb(189, 189, 189)" stroke-width="1px" opacity="0.25"></line><line x1="0" y1="41.877777735392186" x2="1459.850998878479" y2="41.877777735392186" fill="rgb(0, 0, 0)" stroke="rgb(189, 189, 189)" stroke-width="1px" opacity="0.25"></line><line x1="0" y1="0" x2="1459.850998878479" y2="0" fill="rgb(0, 0, 0)" stroke="rgb(189, 189, 189)" stroke-width="1px" opacity="0.25"></line></g></g></g><g><g><line x1="0" y1="502.5333328247071" x2="1459.850998878479" y2="502.5333328247071" fill="rgb(0, 0, 0)" stroke="rgb(153, 153, 153)" stroke-width="1.5px"></line></g></g><g><g><line x1="121.65424990653992" y1="0" x2="121.65424990653992" y2="376.8999996185303" fill="rgb(0, 0, 0)" stroke="rgb(153, 153, 153)" stroke-width="1.5px"></line></g></g><g><g><g><g><g><path style="fill: none;" stroke="rgb(0, 153, 136)" stroke-width="2px" d="M126.27711140298842,33.824617767537475L131.14328139925004,45.77954971991451L136.00945139551163,72.49979031549405L140.87562139177322,94.4691406860132L145.7417913880348,99.45599909631002L150.60796138429643,107.80555673555729L155.47413138055802,110.35276142725446L160.3403013768196,131.40808657574743L165.2064713730812,141.41120613262055L170.07264136934282,146.62211246895086L174.9388113656044,154.20120954996472L179.804981361866,158.61122700230723L184.6711513581276,171.06767863298182L189.53732135438918,174.79326066622966L194.40349135065077,179.77188522163166L199.2696613469124,187.0711379051417L204.13583134317398,191.48462244546977L209.00200133943557,211.29997709493492L213.86817133569716,223.69293561914566L218.7343413319588,234.9994662292693L223.60051132822036,242.70801898330961L228.46668132448195,230.85022192332335L233.33285132074354,251.1549402617166L238.19902131700513,247.45475517007785L243.06519131326678,256.0134683427456L247.93136130952834,246.245859745588L252.79753130578993,258.40841653706366L257.66370130205155,250.66760911163124L262.52987129831314,261.949913297885L267.39604129457473,261.67321219076086L272.2622112908363,260.04591861702676L277.1283812870979,258.6347202028452L281.9945512833595,264.11631948740234L286.86072127962115,251.3475228122712L291.72689127588274,253.3437649434024L296.5930612721443,248.28553943074525L301.4592312684059,254.031549998433L306.3254012646675,269.89776322450854L311.1915712609291,289.9647393305494L316.0577412571907,290.1473987004351L320.9239112534523,301.7891077036636L325.7900812497139,300.7311322958678L330.6562512459755,284.49193493891215L335.5224212422371,289.82767204168556L340.3885912384987,294.4803077652424L345.2547612347603,301.8223128261484L350.12093123102187,290.96320873464856L354.98710122728346,290.2931268480262L359.85327122354505,292.4361165315093L364.71944121980664,280.24740399150585L369.58561121606823,284.9433214345234L374.4517812123299,298.9563149390874L379.3179512085915,291.92721787241703L384.18412120485306,296.789155316121L389.0502912011147,291.81088700954473L393.91646119737624,309.97115022384537L398.7826311936378,309.0873560117714L403.6488011898995,296.3490444675762L408.514971186161,295.8135811871093L413.38114118242265,295.89354791970277L418.2473111786842,294.9420006211298L423.11348117494583,289.345998309497L427.9796511712075,296.93949075468174L432.845821167469,300.921695572101L437.71199116373066,312.7899465156096L442.5781611599922,303.81274941036094L447.4443311562538,294.35351836824117L452.3105011525154,299.8222675020142L457.17667114877696,302.75944318635396L462.0428411450386,299.26609400102114L466.90901114130025,299.84578967496384L471.7751811375618,304.78434288369135L476.64135113382343,288.61000361469166L481.50752113008497,301.08140599962957L486.3736911263466,301.72874985952564L491.2398611226082,292.1319421177396L496.10603111886974,288.9458293156916L500.9722011151314,301.0291768242509L505.8383711113929,296.3947010913993L510.70454110765456,301.506950314413L515.5707111039162,302.6863120854557L520.4368811001777,299.9398369999884L525.3030510964394,305.03272713499393L530.169221092701,302.4029115678508L535.0353910889626,307.8352325265843L539.9015610852242,293.08084275261524L544.7677310814857,284.53996305102453L549.6339010777474,288.25046673052736L554.5000710740089,292.6817576871439L559.3662410702706,273.625787486074L564.2324110665321,275.07168400566843L569.0985810627936,271.2256275756195L573.9647510590553,272.70611032248183L578.8309210553169,287.4598870168475L583.6970910515785,292.8749345894196L588.5632610478401,295.749975954009L593.4294310441016,294.39269423454544L598.2956010403633,308.5471677815458L603.1617710366249,304.67690830210694L608.0279410328865,308.359484848937L612.8941110291481,303.49032222558714L617.7602810254098,294.95412459154124L622.6264510216713,298.62807385583176L627.492621017933,297.53384893897845L632.3587910141945,300.2150125245865L637.2249610104561,279.3776306127031L642.0911310067177,290.9873251689672L646.9573010029793,287.75030199279627L651.8234709992408,284.743117735257L656.6896409955025,283.1305483715557L661.555810991764,285.04773120317566L666.4219809880257,284.69838795899466L671.2881509842872,288.024571843036L676.1543209805488,287.4288606408035L681.0204909768105,304.1603825281564L685.886660973072,294.36470585490696L690.7528309693337,287.4475302263459L695.6190009655952,289.602708393323L700.4851709618569,302.8822206977072L705.3513409581185,316.5304954927927L710.21751095438,322.1995074605937L715.0836809506417,320.0692601631308L719.9498509469032,309.99372661620976L724.8160209431649,301.05632849796217L729.6821909394265,294.5558032191266L734.548360935688,291.1312665992664L739.4145309319496,292.309276742579L744.2807009282112,283.9953207703257L749.1468709244728,298.5990299152923L754.0130409207344,297.3919615345489L758.879210916996,296.8359533323244L763.7453809132576,295.2492612201464L768.6115509095191,292.87097864562423L773.4777209057809,298.84694238103873L778.3438909020424,299.16790818929707L783.2100608983039,294.73075264622054L788.0762308945657,283.27316589216656L792.9424008908272,286.1144127536049L797.8085708870888,292.7593021618546L802.6747408833503,295.0853441378345L807.540910879612,296.35839534252636L812.4070808758736,304.77445084997095L817.2732508721351,308.19783849318253L822.1394208683968,308.5559490014748L827.0055908646584,303.90172329197924L831.87176086092,299.317280372173L836.7379308571816,305.93093627578054L841.6041008534431,311.7270461958646L846.4702708497047,302.00253639835904L851.3364408459664,296.56106769963776L856.202610842228,304.22399160565436L861.0687808384895,316.95448689824013L865.934950834751,285.6572811019196L870.8011208310128,279.9001454250249L875.6672908272743,280.4119532714784L880.5334608235358,291.5756240921997L885.3996308197976,303.2116714547585L890.2658008160591,297.8191487304588L895.1319708123207,298.0030512829364L899.9981408085823,288.98316634535206L904.864310804844,281.09719092988325L909.7304808011055,277.0826582270132L914.596650797367,281.86934529454L919.4628207936287,295.4419717143273L924.3289907898903,303.9394160980224L929.1951607861519,311.7420585447934L934.0613307824135,286.6102152145797L938.927500778675,299.2761613697197L943.7936707749366,308.83761166796023L948.6598407711983,301.5382674634102L953.5260107674599,311.3834380698143L958.3921807637214,307.3578395394995L963.2583507599832,289.45720764665754L968.1245207562447,287.79382293675786L972.9906907525062,286.5747565722624L977.8568607487678,289.27815890082974L982.7230307450295,292.80008452130977L987.589200741291,299.2835342335997L992.4553707375526,298.2257697583639L997.3215407338142,288.30919599544677L1002.1877107300759,291.92817454306953L1007.0538807263374,304.1637476596319L1011.9200507225991,303.0493239847451L1016.7862207188606,292.3237624487765L1021.6523907151222,301.6690380448458L1026.518560711384,297.7399996078581L1031.3847307076455,291.18709477801895L1036.250900703907,270.9183214832348L1041.1170707001686,272.0766602578606L1045.9832406964304,290.7353788961434L1050.849410692692,294.50070882583327L1055.7155806889534,301.7321630271418L1060.581750685215,284.8846673516369L1065.4479206814765,275.06144537354567L1070.3140906777382,283.8073624664636L1075.1802606739998,285.06307859040425L1080.0464306702613,285.6982825076073L1084.9126006665228,298.5539096088537L1089.7787706627846,304.277411886166L1094.6449406590461,301.4336916001901L1099.5111106553077,298.52937651917347L1104.3772806515692,293.5960848566245L1109.243450647831,292.8999718600242L1114.1096206440925,293.84630839979565L1118.975790640354,296.0620072436253L1123.8419606366158,299.71297365447526L1128.7081306328773,292.34131527836865L1133.5743006291389,288.8417711482451L1138.4404706254006,292.6297642569951L1143.3066406216622,287.30138078846323L1148.1728106179237,305.0445824822557L1153.0389806141854,296.37519943876L1157.905150610447,299.6158531709107L1162.7713206067085,297.23987826373735L1167.63749060297,304.9487382145156L1172.5036605992318,298.96683445993693L1177.3698305954933,284.4724968469173L1182.2360005917549,291.2162869947736L1187.1021705880166,289.6138290588129L1191.9683405842782,283.18695157246214L1196.8345105805397,297.33526698599434L1201.7006805768015,300.05484227997295L1206.566850573063,294.2115215875479L1211.4330205693245,290.75037927775696L1216.299190565586,290.724557828668L1221.1653605618478,293.2089840890761L1226.0315305581094,296.4833950439546L1230.8977005543709,289.89348302786937L1235.7638705506324,302.74175626364035L1240.6300405468942,303.90445689181246L1245.4962105431557,299.0080549844657L1250.3623805394172,297.21774053621397L1255.2285505356788,298.8572478476082L1260.0947205319403,309.93350900944256L1264.960890528202,308.98708235343884L1269.8270605244636,298.91909135565965L1274.6932305207251,297.916395391805L1279.5594005169867,290.40703283267806L1284.4255705132484,282.41923192642736L1289.29174050951,296.55278177425606L1294.1579105057715,296.5812627197378L1299.0240805020333,308.0557061627572L1303.8902504982948,305.44192459479643L1308.7564204945563,288.3739353943056L1313.622590490818,294.9659995743821" fill="none"></path></g></g></g></g><g opacity="0.2"><g><g><g><path style="fill: none;" stroke="rgb(0, 153, 136)" stroke-width="2px" d="M126.27711140298842,33.824617767537475L131.14328139925004,52.95250889134073L136.00945139551163,98.15122128725032L140.87562139177322,120.30509672174382L145.7417913880348,105.96684143679369L150.60796138429643,119.35600079138635L155.47413138055802,113.99530489165645L160.3403013768196,162.10695277337163L165.2064713730812,156.16386447306573L170.07264136934282,154.35970107853328L174.9388113656044,165.50111331878225L179.804981361866,165.20225406059194L184.6711513581276,189.71168360317532L189.53732135438918,180.37433491305623L194.40349135065077,187.2339698684602L199.2696613469124,198.0148689318911L204.13583134317398,198.10298161721744L209.00200133943557,241.01797795273373L213.86817133569716,242.2804854629657L218.7343413319588,251.95822868277173L223.60051132822036,254.27042535901697L228.46668132448195,213.06391651920717L233.33285132074354,281.6116168880629L238.19902131700513,241.9045213648397L243.06519131326678,268.8514772700772L247.93136130952834,231.59448850424033L252.79753130578993,276.6522206036278L257.66370130205155,239.05640985744554L262.52987129831314,278.873359184669L267.39604129457473,261.258160683003L272.2622112908363,257.6049787960539L277.1283812870979,256.51792286235406L281.9945512833595,272.3387177598453L286.86072127962115,232.19432871417692L291.72689127588274,256.3381280543072L296.5930612721443,240.69820129219116L301.4592312684059,262.65056576106446L306.3254012646675,293.69708291633617L311.1915712609291,320.06520337784167L316.0577412571907,290.42138775465327L320.9239112534523,319.2516711851633L325.7900812497139,299.1441691854469L330.6562512459755,260.13313891520085L335.5224212422371,297.83127769353473L340.3885912384987,301.4592613493686L345.2547612347603,312.8353204163626L350.12093123102187,274.67455259841466L354.98710122728346,289.2880040181303L359.85327122354505,295.6506010566618L364.71944121980664,261.964335181747L369.58561121606823,291.98719759899285L374.4517812123299,319.9758051958314L379.3179512085915,281.38357227244217L384.18412120485306,304.08206148166425L389.0502912011147,284.34348454968807L393.91646119737624,337.21154504527925L398.7826311936378,307.761664693661L403.6488011898995,277.2415771512877L408.514971186161,295.0103862664092L413.38114118242265,296.0134980185928L418.2473111786842,293.5146796732705L423.11348117494583,280.95199484204795L427.9796511712075,308.3297294224586L432.845821167469,306.8950027982298L437.71199116373066,330.59232293087246L442.5781611599922,290.34695375248805L447.4443311562538,280.1646718050615L452.3105011525154,308.0253912026737L457.17667114877696,307.1652067128636L462.0428411450386,294.0260702230219L466.90901114130025,300.71533318587785L471.7751811375618,312.1921726967826L476.64135113382343,264.3484947111922L481.50752113008497,319.78850957703656L486.3736911263466,302.6997656493697L491.2398611226082,277.73673050506045L496.10603111886974,284.16666011261964L500.9722011151314,319.15419808708987L505.8383711113929,289.4429874921221L510.70454110765456,309.17532414893356L515.5707111039162,304.4553547420197L520.4368811001777,295.8201243717875L525.3030510964394,312.6720623375024L530.169221092701,298.45818821713607L535.0353910889626,315.9837139646846L539.9015610852242,270.9492580916616L544.7677310814857,271.72864349863846L549.6339010777474,293.8162222497816L554.5000710740089,299.32869412206867L559.3662410702706,245.0418321844691L564.2324110665321,277.24052878506L569.0985810627936,265.4565429305462L573.9647510590553,274.92683444277526L578.8309210553169,309.59055205839616L583.6970910515785,300.99750594827765L588.5632610478401,300.06253800089314L593.4294310441016,292.3567716553501L598.2956010403633,329.77887810204635L603.1617710366249,298.87151908294857L608.0279410328865,313.88334966918205L612.8941110291481,296.1865782905624L617.7602810254098,282.14982814047244L622.6264510216713,304.1389977522674L627.492621017933,295.89251156369863L632.3587910141945,304.2367579029984L637.2249610104561,248.12155774487817L642.0911310067177,308.4018670033632L646.9573010029793,282.8947672285399L651.8234709992408,280.23234134894807L656.6896409955025,280.7116943260037L661.555810991764,287.92350545060566L666.4219809880257,284.1743730927233L671.2881509842872,293.01384766909786L676.1543209805488,286.5352938374549L681.0204909768105,329.2576653591856L685.886660973072,279.6711908450329L690.7528309693337,277.0717667835045L695.6190009655952,292.8354756437886L700.4851709618569,322.8014891542835L705.3513409581185,337.0029076854209L710.21751095438,330.7030254122952L715.0836809506417,316.8738892169365L719.9498509469032,294.8804262958281L724.8160209431649,287.6502313205908L729.6821909394265,284.8050153008731L734.548360935688,285.99446166947615L739.4145309319496,294.0762919575478L744.2807009282112,271.5243868119458L749.1468709244728,320.5045936327422L754.0130409207344,295.58135896343373L758.879210916996,296.0019410289877L763.7453809132576,292.86922305187954L768.6115509095191,289.30355478384087L773.4777209057809,307.8108879841605L778.3438909020424,299.6493569016846L783.2100608983039,288.0750193316058L788.0762308945657,266.0867857610855L792.9424008908272,290.3762830457624L797.8085708870888,302.7266362742291L802.6747408833503,298.5744071018044L807.540910879612,298.2679721495641L812.4070808758736,317.39853411113785L817.2732508721351,313.33291995799993L822.1394208683968,309.0931147639131L827.0055908646584,296.9203847277359L831.87176086092,292.4406159924637L836.7379308571816,315.8514201311919L841.6041008534431,320.4212110759908L846.4702708497047,287.41577170210076L851.3364408459664,288.3988646515558L856.202610842228,315.71837746467935L861.0687808384895,336.0502298371189L865.934950834751,238.71147240743872L870.8011208310128,271.2644419096829L875.6672908272743,281.1796650411587L880.5334608235358,308.32113032328164L885.3996308197976,320.6657424985968L890.2658008160591,289.7303646440093L895.1319708123207,298.27890511165276L899.9981408085823,275.45333893897566L904.864310804844,269.26822780668004L909.7304808011055,271.06085917270804L914.596650797367,289.04937589583017L919.4628207936287,315.80091134400834L924.3289907898903,316.6855826735649L929.1951607861519,323.44602221495006L934.0613307824135,248.91245021925886L938.927500778675,318.2750806024299L943.7936707749366,323.17978711532106L948.6598407711983,290.5892511565851L953.5260107674599,326.1511939794204L958.3921807637214,301.3194417440272L963.2583507599832,262.60625980739474L968.1245207562447,285.2987458719083L972.9906907525062,284.74615702551915L977.8568607487678,293.3332623936808L982.7230307450295,298.0829729520299L987.589200741291,309.0087088020347L992.4553707375526,296.6391230455102L997.3215407338142,273.4343353510711L1002.1877107300759,297.3566423645037L1007.0538807263374,322.5171073344754L1011.9200507225991,301.377688472415L1016.7862207188606,276.23542014482376L1021.6523907151222,315.6869514389497L1026.518560711384,291.84644195237667L1031.3847307076455,281.3577375332601L1036.250900703907,240.51516154105863L1041.1170707001686,273.8141684197993L1045.9832406964304,318.7234568535677L1050.849410692692,300.1487037203681L1055.7155806889534,312.57934432910446L1060.581750685215,259.6134238383796L1065.4479206814765,260.32661240640886L1070.3140906777382,296.92623810584047L1075.1802606739998,286.9466527763153L1080.0464306702613,286.65108838341206L1084.9126006665228,317.8373502607232L1089.7787706627846,312.86266530213453L1094.6449406590461,297.1681111712262L1099.5111106553077,294.17290389764855L1104.3772806515692,286.19614736280096L1109.243450647831,291.8558023651238L1114.1096206440925,295.26581320945286L1118.975790640354,299.38555550936985L1123.8419606366158,305.1894232707502L1128.7081306328773,281.28382771420877L1133.5743006291389,283.5924549530598L1138.4404706254006,298.31175392012L1143.3066406216622,279.3088055856654L1148.1728106179237,331.6593850229444L1153.0389806141854,283.37112487351635L1157.905150610447,304.4768337691368L1162.7713206067085,293.67591590297735L1167.63749060297,316.51202814068284L1172.5036605992318,289.99397882806903L1177.3698305954933,262.7309904273878L1182.2360005917549,301.33197221655803L1187.1021705880166,287.21014215487185L1191.9683405842782,273.54663534293604L1196.8345105805397,318.55774010629256L1201.7006805768015,304.1342052209409L1206.566850573063,285.44654054891026L1211.4330205693245,285.55866581307055L1216.299190565586,290.68582565503476L1221.1653605618478,296.9356234796882L1226.0315305581094,301.3950114762723L1230.8977005543709,280.0086150037414L1235.7638705506324,322.014166117297L1240.6300405468942,305.64850783407064L1245.4962105431557,291.6634521234455L1250.3623805394172,294.5322688638363L1255.2285505356788,301.3165088146998L1260.0947205319403,326.54790075219404L1264.960890528202,307.5674423694332L1269.8270605244636,283.8171048589909L1274.6932305207251,296.41235144602314L1279.5594005169867,279.1429889939876L1284.4255705132484,270.4375305670513L1289.29174050951,317.75310654599906L1294.1579105057715,296.6239841379605L1299.0240805020333,325.26737132728624L1303.8902504982948,301.52125224285527L1308.7564204945563,262.7719515935692L1313.622590490818,304.854095844497" fill="none"></path></g></g></g></g></g></g><g transform="translate(41, 376)" clip-path="url(#clip_1)"><clipPath id="clip_1"><rect width="1459" height="23"></rect></clipPath><g><g><line x1="0" y1="0" x2="0" y2="5" style="visibility: inherit;" fill="rgb(0, 0, 0)" stroke="rgb(204, 204, 204)" stroke-width="1px"></line><line x1="121.65424990653992" y1="0" x2="121.65424990653992" y2="5" style="visibility: inherit;" fill="rgb(0, 0, 0)" stroke="rgb(204, 204, 204)" stroke-width="1px"></line><line x1="243.30849981307983" y1="0" x2="243.30849981307983" y2="5" style="visibility: inherit;" fill="rgb(0, 0, 0)" stroke="rgb(204, 204, 204)" stroke-width="1px"></line><line x1="364.96274971961975" y1="0" x2="364.96274971961975" y2="5" style="visibility: inherit;" fill="rgb(0, 0, 0)" stroke="rgb(204, 204, 204)" stroke-width="1px"></line><line x1="486.61699962615967" y1="0" x2="486.61699962615967" y2="5" style="visibility: inherit;" fill="rgb(0, 0, 0)" stroke="rgb(204, 204, 204)" stroke-width="1px"></line><line x1="608.2712495326996" y1="0" x2="608.2712495326996" y2="5" style="visibility: inherit;" fill="rgb(0, 0, 0)" stroke="rgb(204, 204, 204)" stroke-width="1px"></line><line x1="729.9254994392395" y1="0" x2="729.9254994392395" y2="5" style="visibility: inherit;" fill="rgb(0, 0, 0)" stroke="rgb(204, 204, 204)" stroke-width="1px"></line><line x1="851.5797493457794" y1="0" x2="851.5797493457794" y2="5" style="visibility: inherit;" fill="rgb(0, 0, 0)" stroke="rgb(204, 204, 204)" stroke-width="1px"></line><line x1="973.2339992523193" y1="0" x2="973.2339992523193" y2="5" style="visibility: inherit;" fill="rgb(0, 0, 0)" stroke="rgb(204, 204, 204)" stroke-width="1px"></line><line x1="1094.8882491588593" y1="0" x2="1094.8882491588593" y2="5" style="visibility: inherit;" fill="rgb(0, 0, 0)" stroke="rgb(204, 204, 204)" stroke-width="1px"></line><line x1="1216.5424990653992" y1="0" x2="1216.5424990653992" y2="5" style="visibility: inherit;" fill="rgb(0, 0, 0)" stroke="rgb(204, 204, 204)" stroke-width="1px"></line><line x1="1338.196748971939" y1="0" x2="1338.196748971939" y2="5" style="visibility: inherit;" fill="rgb(0, 0, 0)" stroke="rgb(204, 204, 204)" stroke-width="1px"></line><line x1="1459.850998878479" y1="0" x2="1459.850998878479" y2="5" style="visibility: inherit;" fill="rgb(0, 0, 0)" stroke="rgb(204, 204, 204)" stroke-width="1px"></line></g><g transform="translate(0, 8)"><text style="text-anchor: middle; visibility: hidden; font-family: Roboto, sans-serif; font-size: 12px; font-weight: 200;" x="0" y="0" dx="0em" dy="0.95em" fill="rgb(255, 255, 255)" stroke="none" stroke-width="1px">-500</text><text style="text-anchor: middle; visibility: inherit; font-family: Roboto, sans-serif; font-size: 12px; font-weight: 200;" x="121.65424990653992" y="0" dx="0em" dy="0.95em" fill="rgb(255, 255, 255)" stroke="none" stroke-width="1px">0</text><text style="text-anchor: middle; visibility: inherit; font-family: Roboto, sans-serif; font-size: 12px; font-weight: 200;" x="243.30849981307983" y="0" dx="0em" dy="0.95em" fill="rgb(255, 255, 255)" stroke="none" stroke-width="1px">500</text><text style="text-anchor: middle; visibility: inherit; font-family: Roboto, sans-serif; font-size: 12px; font-weight: 200;" x="364.96274971961975" y="0" dx="0em" dy="0.95em" fill="rgb(255, 255, 255)" stroke="none" stroke-width="1px">1k</text><text style="text-anchor: middle; visibility: inherit; font-family: Roboto, sans-serif; font-size: 12px; font-weight: 200;" x="486.61699962615967" y="0" dx="0em" dy="0.95em" fill="rgb(255, 255, 255)" stroke="none" stroke-width="1px">1.5k</text><text style="text-anchor: middle; visibility: inherit; font-family: Roboto, sans-serif; font-size: 12px; font-weight: 200;" x="608.2712495326996" y="0" dx="0em" dy="0.95em" fill="rgb(255, 255, 255)" stroke="none" stroke-width="1px">2k</text><text style="text-anchor: middle; visibility: inherit; font-family: Roboto, sans-serif; font-size: 12px; font-weight: 200;" x="729.9254994392395" y="0" dx="0em" dy="0.95em" fill="rgb(255, 255, 255)" stroke="none" stroke-width="1px">2.5k</text><text style="text-anchor: middle; visibility: inherit; font-family: Roboto, sans-serif; font-size: 12px; font-weight: 200;" x="851.5797493457794" y="0" dx="0em" dy="0.95em" fill="rgb(255, 255, 255)" stroke="none" stroke-width="1px">3k</text><text style="text-anchor: middle; visibility: inherit; font-family: Roboto, sans-serif; font-size: 12px; font-weight: 200;" x="973.2339992523193" y="0" dx="0em" dy="0.95em" fill="rgb(255, 255, 255)" stroke="none" stroke-width="1px">3.5k</text><text style="text-anchor: middle; visibility: inherit; font-family: Roboto, sans-serif; font-size: 12px; font-weight: 200;" x="1094.8882491588593" y="0" dx="0em" dy="0.95em" fill="rgb(255, 255, 255)" stroke="none" stroke-width="1px">4k</text><text style="text-anchor: middle; visibility: inherit; font-family: Roboto, sans-serif; font-size: 12px; font-weight: 200;" x="1216.5424990653992" y="0" dx="0em" dy="0.95em" fill="rgb(255, 255, 255)" stroke="none" stroke-width="1px">4.5k</text><text style="text-anchor: middle; visibility: inherit; font-family: Roboto, sans-serif; font-size: 12px; font-weight: 200;" x="1338.196748971939" y="0" dx="0em" dy="0.95em" fill="rgb(255, 255, 255)" stroke="none" stroke-width="1px">5k</text><text style="text-anchor: middle; visibility: hidden; font-family: Roboto, sans-serif; font-size: 12px; font-weight: 200;" x="1459.850998878479" y="0" dx="0em" dy="0.95em" fill="rgb(255, 255, 255)" stroke="none" stroke-width="1px">5.5k</text></g><line x1="0" y1="0" x2="1459.850998878479" y2="0" fill="rgb(0, 0, 0)" stroke="rgb(204, 204, 204)" stroke-width="1px"></line></g></g></g></g></svg>