<svg viewBox="0 0 1501 400" xmlns="http://www.w3.org/2000/svg"><g><g><g><g><g><line x1="41.149001121520996" y1="376.8999996185303" x2="36.149001121520996" y2="376.8999996185303" style="visibility: inherit;" fill="rgb(0, 0, 0)" stroke="rgb(204, 204, 204)" stroke-width="1px"></line><line x1="41.149001121520996" y1="335.02222188313806" x2="36.149001121520996" y2="335.02222188313806" style="visibility: inherit;" fill="rgb(0, 0, 0)" stroke="rgb(204, 204, 204)" stroke-width="1px"></line><line x1="41.149001121520996" y1="293.1444441477458" x2="36.149001121520996" y2="293.1444441477458" style="visibility: inherit;" fill="rgb(0, 0, 0)" stroke="rgb(204, 204, 204)" stroke-width="1px"></line><line x1="41.149001121520996" y1="251.26666641235354" x2="36.149001121520996" y2="251.26666641235354" style="visibility: inherit;" fill="rgb(0, 0, 0)" stroke="rgb(204, 204, 204)" stroke-width="1px"></line><line x1="41.149001121520996" y1="209.38888867696127" x2="36.149001121520996" y2="209.38888867696127" style="visibility: inherit;" fill="rgb(0, 0, 0)" stroke="rgb(204, 204, 204)" stroke-width="1px"></line><line x1="41.149001121520996" y1="167.5111109415691" x2="36.149001121520996" y2="167.5111109415691" style="visibility: inherit;" fill="rgb(0, 0, 0)" stroke="rgb(204, 204, 204)" stroke-width="1px"></line><line x1="41.149001121520996" y1="125.63333320617677" x2="36.149001121520996" y2="125.63333320617677" style="visibility: inherit;" fill="rgb(0, 0, 0)" stroke="rgb(204, 204, 204)" stroke-width="1px"></line><line x1="41.149001121520996" y1="83.75555547078459" x2="36.149001121520996" y2="83.75555547078459" style="visibility: inherit;" fill="rgb(0, 0, 0)" stroke="rgb(204, 204, 204)" stroke-width="1px"></line><line x1="41.149001121520996" y1="41.87777773539227" x2="36.149001121520996" y2="41.87777773539227" style="visibility: inherit;" fill="rgb(0, 0, 0)" stroke="rgb(204, 204, 204)" stroke-width="1px"></line><line x1="41.149001121520996" y1="0" x2="36.149001121520996" y2="0" style="visibility: inherit;" fill="rgb(0, 0, 0)" stroke="rgb(204, 204, 204)" stroke-width="1px"></line></g><g transform="translate(31.149001121520996, 0)"><text style="text-anchor: end; visibility: hidden; font-family: Roboto, sans-serif; font-size: 12px; font-weight: 200;" x="0" y="376.8999996185303" dx="0em" dy="0.3em" fill="rgb(255, 255, 255)" stroke="none" stroke-width="1px">0.2</text><text style="text-anchor: end; visibility: inherit; font-family: Roboto, sans-serif; font-size: 12px; font-weight: 200;" x="0" y="335.02222188313806" dx="0em" dy="0.3em" fill="rgb(255, 255, 255)" stroke="none" stroke-width="1px">0.3</text><text style="text-anchor: end; visibility: inherit; font-family: Roboto, sans-serif; font-size: 12px; font-weight: 200;" x="0" y="293.1444441477458" dx="0em" dy="0.3em" fill="rgb(255, 255, 255)" stroke="none" stroke-width="1px">0.4</text><text style="text-anchor: end; visibility: inherit; font-family: Roboto, sans-serif; font-size: 12px; font-weight: 200;" x="0" y="251.26666641235354" dx="0em" dy="0.3em" fill="rgb(255, 255, 255)" stroke="none" stroke-width="1px">0.5</text><text style="text-anchor: end; visibility: inherit; font-family: Roboto, sans-serif; font-size: 12px; font-weight: 200;" x="0" y="209.38888867696127" dx="0em" dy="0.3em" fill="rgb(255, 255, 255)" stroke="none" stroke-width="1px">0.6</text><text style="text-anchor: end; visibility: inherit; font-family: Roboto, sans-serif; font-size: 12px; font-weight: 200;" x="0" y="167.5111109415691" dx="0em" dy="0.3em" fill="rgb(255, 255, 255)" stroke="none" stroke-width="1px">0.7</text><text style="text-anchor: end; visibility: inherit; font-family: Roboto, sans-serif; font-size: 12px; font-weight: 200;" x="0" y="125.63333320617677" dx="0em" dy="0.3em" fill="rgb(255, 255, 255)" stroke="none" stroke-width="1px">0.8</text><text style="text-anchor: end; visibility: inherit; font-family: Roboto, sans-serif; font-size: 12px; font-weight: 200;" x="0" y="83.75555547078459" dx="0em" dy="0.3em" fill="rgb(255, 255, 255)" stroke="none" stroke-width="1px">0.9</text><text style="text-anchor: end; visibility: inherit; font-family: Roboto, sans-serif; font-size: 12px; font-weight: 200;" x="0" y="41.87777773539227" dx="0em" dy="0.3em" fill="rgb(255, 255, 255)" stroke="none" stroke-width="1px">1</text><text style="text-anchor: end; visibility: hidden; font-family: Roboto, sans-serif; font-size: 12px; font-weight: 200;" x="0" y="0" dx="0em" dy="0.3em" fill="rgb(255, 255, 255)" stroke="none" stroke-width="1px">1.1</text></g><line x1="41.149001121520996" y1="0" x2="41.149001121520996" y2="376.8999996185303" fill="rgb(0, 0, 0)" stroke="rgb(204, 204, 204)" stroke-width="1px"></line></g></g><g transform="translate(41, 0)" clip-path="url(#clip_0)"><clipPath id="clip_0"><rect width="1459" height="376"></rect></clipPath><g><g><g><line x1="0" y1="0" x2="0" y2="376.8999996185303" fill="rgb(0, 0, 0)" stroke="rgb(189, 189, 189)" stroke-width="1px" opacity="0.25"></line><line x1="132.71372717077082" y1="0" x2="132.71372717077082" y2="376.8999996185303" fill="rgb(0, 0, 0)" stroke="rgb(189, 189, 189)" stroke-width="1px" opacity="0.25"></line><line x1="265.42745434154165" y1="0" x2="265.42745434154165" y2="376.8999996185303" fill="rgb(0, 0, 0)" stroke="rgb(189, 189, 189)" stroke-width="1px" opacity="0.25"></line><line x1="398.1411815123124" y1="0" x2="398.1411815123124" y2="376.8999996185303" fill="rgb(0, 0, 0)" stroke="rgb(189, 189, 189)" stroke-width="1px" opacity="0.25"></line><line x1="530.8549086830833" y1="0" x2="530.8549086830833" y2="376.8999996185303" fill="rgb(0, 0, 0)" stroke="rgb(189, 189, 189)" stroke-width="1px" opacity="0.25"></line><line x1="663.5686358538541" y1="0" x2="663.5686358538541" y2="376.8999996185303" fill="rgb(0, 0, 0)" stroke="rgb(189, 189, 189)" stroke-width="1px" opacity="0.25"></line><line x1="796.2823630246248" y1="0" x2="796.2823630246248" y2="376.8999996185303" fill="rgb(0, 0, 0)" stroke="rgb(189, 189, 189)" stroke-width="1px" opacity="0.25"></line><line x1="928.9960901953957" y1="0" x2="928.9960901953957" y2="376.8999996185303" fill="rgb(0, 0, 0)" stroke="rgb(189, 189, 189)" stroke-width="1px" opacity="0.25"></line><line x1="1061.7098173661666" y1="0" x2="1061.7098173661666" y2="376.8999996185303" fill="rgb(0, 0, 0)" stroke="rgb(189, 189, 189)" stroke-width="1px" opacity="0.25"></line><line x1="1194.4235445369375" y1="0" x2="1194.4235445369375" y2="376.8999996185303" fill="rgb(0, 0, 0)" stroke="rgb(189, 189, 189)" stroke-width="1px" opacity="0.25"></line><line x1="1327.1372717077081" y1="0" x2="1327.1372717077081" y2="376.8999996185303" fill="rgb(0, 0, 0)" stroke="rgb(189, 189, 189)" stroke-width="1px" opacity="0.25"></line><line x1="1459.850998878479" y1="0" x2="1459.850998878479" y2="376.8999996185303" fill="rgb(0, 0, 0)" stroke="rgb(189, 189, 189)" stroke-width="1px" opacity="0.25"></line></g><g><line x1="0" y1="376.8999996185303" x2="1459.850998878479" y2="376.8999996185303" fill="rgb(0, 0, 0)" stroke="rgb(189, 189, 189)" stroke-width="1px" opacity="0.25"></line><line x1="0" y1="335.02222188313806" x2="1459.850998878479" y2="335.02222188313806" fill="rgb(0, 0, 0)" stroke="rgb(189, 189, 189)" stroke-width="1px" opacity="0.25"></line><line x1="0" y1="293.1444441477458" x2="1459.850998878479" y2="293.1444441477458" fill="rgb(0, 0, 0)" stroke="rgb(189, 189, 189)" stroke-width="1px" opacity="0.25"></line><line x1="0" y1="251.26666641235354" x2="1459.850998878479" y2="251.26666641235354" fill="rgb(0, 0, 0)" stroke="rgb(189, 189, 189)" stroke-width="1px" opacity="0.25"></line><line x1="0" y1="209.38888867696127" x2="1459.850998878479" y2="209.38888867696127" fill="rgb(0, 0, 0)" stroke="rgb(189, 189, 189)" stroke-width="1px" opacity="0.25"></line><line x1="0" y1="167.5111109415691" x2="1459.850998878479" y2="167.5111109415691" fill="rgb(0, 0, 0)" stroke="rgb(189, 189, 189)" stroke-width="1px" opacity="0.25"></line><line x1="0" y1="125.63333320617677" x2="1459.850998878479" y2="125.63333320617677" fill="rgb(0, 0, 0)" stroke="rgb(189, 189, 189)" stroke-width="1px" opacity="0.25"></line><line x1="0" y1="83.75555547078459" x2="1459.850998878479" y2="83.75555547078459" fill="rgb(0, 0, 0)" stroke="rgb(189, 189, 189)" stroke-width="1px" opacity="0.25"></line><line x1="0" y1="41.87777773539227" x2="1459.850998878479" y2="41.87777773539227" fill="rgb(0, 0, 0)" stroke="rgb(189, 189, 189)" stroke-width="1px" opacity="0.25"></line><line x1="0" y1="0" x2="1459.850998878479" y2="0" fill="rgb(0, 0, 0)" stroke="rgb(189, 189, 189)" stroke-width="1px" opacity="0.25"></line></g></g></g><g><g><line x1="0" y1="460.6555550893148" x2="1459.850998878479" y2="460.6555550893148" fill="rgb(0, 0, 0)" stroke="rgb(153, 153, 153)" stroke-width="1.5px"></line></g></g><g><g><line x1="132.71372717077082" y1="0" x2="132.71372717077082" y2="376.8999996185303" fill="rgb(0, 0, 0)" stroke="rgb(153, 153, 153)" stroke-width="1.5px"></line></g></g><g><g><g><g><g><path style="fill: none;" stroke="rgb(204, 51, 17)" stroke-width="2px" d="M145.32153125199406,360.86866282920045L158.59290396907113,354.7342227312426L171.8642766861482,344.5101559013128L185.1356494032253,307.6734445287718L198.40702212030234,255.53736058742038L211.67839483737944,197.46369526462186L224.9497675544565,144.88113788564957L238.2211402715336,120.27942675411069L251.4925129886107,98.51453130353318L264.7638857056878,81.64690025555129L278.03525842276485,70.27838856155937L291.30663113984195,64.13950343130224L304.57800385691905,59.154343851241684L317.8493765739961,53.548004598240944L331.1207492910732,50.84166220289053L344.39212200815024,51.83677108685286L357.66349472522734,49.81585250360885L370.93486744230444,50.56674051916965L384.20624015938154,51.67160467144048L397.47761287645864,48.408294862359675L410.7489855935357,49.72215849642755L424.0203583106128,49.85610934067478L437.2917310276899,47.97344238480291L450.563103744767,48.152538482126275L463.834476461844,46.296969185111145L477.1058491789211,46.49231376979227L490.3772218959982,45.9551793605114L503.6485946130752,47.59592110361133L516.9199673301523,49.23470602283775L530.1913400472293,50.217976587928085L543.4627127643065,48.84491769613181L556.7340854813835,47.36674214842406L570.0054581984607,49.09719812853702L583.2768309155377,49.48113136785673L596.5482036326148,47.748470439316414L609.8195763496919,49.3262350367135L623.090949066769,48.309872941241565L636.362321783846,48.354395967529165L649.6336945009232,48.38110978319594L662.9050672180002,47.08845751657755L676.1764399350774,47.621546712992995L689.4478126521544,46.6327196757079L702.7191853692315,47.34810400825017L715.9905580863086,45.814313775956855L729.2619308033857,44.23969935956736L742.5333035204628,47.22097237277629L755.8046762375398,48.35539590344264L769.0760489546169,45.76434863616437L782.347421671694,44.864060552958954L795.6187943887711,44.9782279801642L808.8901671058481,45.701068713605466L822.1615398229253,45.480432876550545L835.4329125400023,47.31107220566796L848.7042852570795,45.792094694671675L861.9756579741564,46.84372901942259L875.2470306912335,45.51168878292548L888.5184034083106,45.36680491814321L901.7897761253877,49.86025653908294L915.0611488424648,46.66726501760637L928.3325215595418,48.67751176741389L941.603894276619,49.22931954018276L954.875266993696,48.9060639267286L968.1466397107731,47.40343000442503L981.4180124278502,47.15618992815843L994.6893851449273,48.31652643662953L1007.9607578620044,50.321408895943094L1021.2321305790815,48.25263698595378L1034.5035032961584,47.66571411707575L1047.7748760132356,45.350539564402375L1061.0462487303128,46.57879594126031L1074.31762144739,47.31574976737509L1087.5889941644668,48.412262340159565L1100.860366881544,47.7614893295992L1114.131739598621,48.025365800378474L1127.403112315698,48.18369168284605L1140.6744850327752,46.31566638098005L1153.9458577498522,46.50353175409146L1167.2172304669293,47.27059125507378L1180.4886031840065,47.07648667854765L1193.7599759010836,48.92304476397861L1207.0313486181606,46.75927822965961L1220.3027213352377,46.76969886329919L1233.5740940523146,48.738972074829505L1246.8454667693918,47.95751517040109L1260.116839486469,46.83430075062853L1273.3882122035461,46.8147123758805L1286.659584920623,45.49427879680074L1299.9309576377002,46.010699203583805L1313.2023303547771,46.97489172476926L1326.4737030718545,48.207747514596015L1339.7450757889314,47.638780434260994L1353.0164485060084,47.29740018606002L1366.2878212230855,46.43823176002391L1379.5591939401627,45.26839042728684" fill="none"></path></g></g></g></g><g opacity="0.2"><g><g><g><path style="fill: none;" stroke="rgb(204, 51, 17)" stroke-width="2px" d="M145.32153125199406,360.86866282920045L158.59290396907113,351.0535586724679L171.8642766861482,334.69505174458027L185.1356494032253,264.35347195466363L198.40702212030234,187.46848939359188L211.67839483737944,117.12690960367523L224.9497675544565,69.68723951280118L238.2211402715336,84.40989574790002L251.4925129886107,66.4155381272237L264.7638857056878,56.60043397049111L278.03525842276485,53.32873258491358L291.30663113984195,54.964583277702346L304.57800385691905,51.69288189212486L317.8493765739961,45.1494791209698L331.1207492910732,46.785329813758565L344.39212200815024,53.32873258491358L357.66349472522734,46.785329813758565L370.93486744230444,51.69288189212486L384.20624015938154,53.32873258491358L397.47761287645864,43.513628428181036L410.7489855935357,51.69288189212486L424.0203583106128,50.057031199336095L437.2917310276899,45.1494791209698L450.563103744767,48.42118050654733L463.834476461844,43.513628428181036L477.1058491789211,46.785329813758565L490.3772218959982,45.1494791209698L503.6485946130752,50.057031199336095L516.9199673301523,51.69288189212486L530.1913400472293,51.69288189212486L543.4627127643065,46.785329813758565L556.7340854813835,45.1494791209698L570.0054581984607,51.69288189212486L583.2768309155377,50.057031199336095L596.5482036326148,45.1494791209698L609.8195763496919,51.69288189212486L623.090949066769,46.785329813758565L636.362321783846,48.42118050654733L649.6336945009232,48.42118050654733L662.9050672180002,45.1494791209698L676.1764399350774,48.42118050654733L689.4478126521544,45.1494791209698L702.7191853692315,48.42118050654733L715.9905580863086,43.513628428181036L729.2619308033857,41.87777773539227L742.5333035204628,51.69288189212486L755.8046762375398,50.057031199336095L769.0760489546169,41.87777773539227L782.347421671694,43.513628428181036L795.6187943887711,45.1494791209698L808.8901671058481,46.785329813758565L822.1615398229253,45.1494791209698L835.4329125400023,50.057031199336095L848.7042852570795,43.513628428181036L861.9756579741564,48.42118050654733L875.2470306912335,43.513628428181036L888.5184034083106,45.1494791209698L901.7897761253877,56.60043397049111L915.0611488424648,41.87777773539227L928.3325215595418,51.69288189212486L941.603894276619,50.057031199336095L954.875266993696,48.42118050654733L968.1466397107731,45.1494791209698L981.4180124278502,46.785329813758565L994.6893851449273,50.057031199336095L1007.9607578620044,53.32873258491358L1021.2321305790815,45.1494791209698L1034.5035032961584,46.785329813758565L1047.7748760132356,41.87777773539227L1061.0462487303128,48.42118050654733L1074.31762144739,48.42118050654733L1087.5889941644668,50.057031199336095L1100.860366881544,46.785329813758565L1114.131739598621,48.42118050654733L1127.403112315698,48.42118050654733L1140.6744850327752,43.513628428181036L1153.9458577498522,46.785329813758565L1167.2172304669293,48.42118050654733L1180.4886031840065,46.785329813758565L1193.7599759010836,51.69288189212486L1207.0313486181606,43.513628428181036L1220.3027213352377,46.785329813758565L1233.5740940523146,51.69288189212486L1246.8454667693918,46.785329813758565L1260.116839486469,45.1494791209698L1273.3882122035461,46.785329813758565L1286.659584920623,43.513628428181036L1299.9309576377002,46.785329813758565L1313.2023303547771,48.42118050654733L1326.4737030718545,50.057031199336095L1339.7450757889314,46.785329813758565L1353.0164485060084,46.785329813758565L1366.2878212230855,45.1494791209698L1379.5591939401627,43.513628428181036" fill="none"></path></g></g></g></g></g></g><g transform="translate(41, 376)" clip-path="url(#clip_1)"><clipPath id="clip_1"><rect width="1459" height="23"></rect></clipPath><g><g><line x1="0" y1="0" x2="0" y2="5" style="visibility: inherit;" fill="rgb(0, 0, 0)" stroke="rgb(204, 204, 204)" stroke-width="1px"></line><line x1="132.71372717077082" y1="0" x2="132.71372717077082" y2="5" style="visibility: inherit;" fill="rgb(0, 0, 0)" stroke="rgb(204, 204, 204)" stroke-width="1px"></line><line x1="265.42745434154165" y1="0" x2="265.42745434154165" y2="5" style="visibility: inherit;" fill="rgb(0, 0, 0)" stroke="rgb(204, 204, 204)" stroke-width="1px"></line><line x1="398.1411815123124" y1="0" x2="398.1411815123124" y2="5" style="visibility: inherit;" fill="rgb(0, 0, 0)" stroke="rgb(204, 204, 204)" stroke-width="1px"></line><line x1="530.8549086830833" y1="0" x2="530.8549086830833" y2="5" style="visibility: inherit;" fill="rgb(0, 0, 0)" stroke="rgb(204, 204, 204)" stroke-width="1px"></line><line x1="663.5686358538541" y1="0" x2="663.5686358538541" y2="5" style="visibility: inherit;" fill="rgb(0, 0, 0)" stroke="rgb(204, 204, 204)" stroke-width="1px"></line><line x1="796.2823630246248" y1="0" x2="796.2823630246248" y2="5" style="visibility: inherit;" fill="rgb(0, 0, 0)" stroke="rgb(204, 204, 204)" stroke-width="1px"></line><line x1="928.9960901953957" y1="0" x2="928.9960901953957" y2="5" style="visibility: inherit;" fill="rgb(0, 0, 0)" stroke="rgb(204, 204, 204)" stroke-width="1px"></line><line x1="1061.7098173661666" y1="0" x2="1061.7098173661666" y2="5" style="visibility: inherit;" fill="rgb(0, 0, 0)" stroke="rgb(204, 204, 204)" stroke-width="1px"></line><line x1="1194.4235445369375" y1="0" x2="1194.4235445369375" y2="5" style="visibility: inherit;" fill="rgb(0, 0, 0)" stroke="rgb(204, 204, 204)" stroke-width="1px"></line><line x1="1327.1372717077081" y1="0" x2="1327.1372717077081" y2="5" style="visibility: inherit;" fill="rgb(0, 0, 0)" stroke="rgb(204, 204, 204)" stroke-width="1px"></line><line x1="1459.850998878479" y1="0" x2="1459.850998878479" y2="5" style="visibility: inherit;" fill="rgb(0, 0, 0)" stroke="rgb(204, 204, 204)" stroke-width="1px"></line></g><g transform="translate(0, 8)"><text style="text-anchor: middle; visibility: hidden; font-family: Roboto, sans-serif; font-size: 12px; font-weight: 200;" x="0" y="0" dx="0em" dy="0.95em" fill="rgb(255, 255, 255)" stroke="none" stroke-width="1px">-200</text><text style="text-anchor: middle; visibility: inherit; font-family: Roboto, sans-serif; font-size: 12px; font-weight: 200;" x="132.71372717077082" y="0" dx="0em" dy="0.95em" fill="rgb(255, 255, 255)" stroke="none" stroke-width="1px">0</text><text style="text-anchor: middle; visibility: inherit; font-family: Roboto, sans-serif; font-size: 12px; font-weight: 200;" x="265.42745434154165" y="0" dx="0em" dy="0.95em" fill="rgb(255, 255, 255)" stroke="none" stroke-width="1px">200</text><text style="text-anchor: middle; visibility: inherit; font-family: Roboto, sans-serif; font-size: 12px; font-weight: 200;" x="398.1411815123124" y="0" dx="0em" dy="0.95em" fill="rgb(255, 255, 255)" stroke="none" stroke-width="1px">400</text><text style="text-anchor: middle; visibility: inherit; font-family: Roboto, sans-serif; font-size: 12px; font-weight: 200;" x="530.8549086830833" y="0" dx="0em" dy="0.95em" fill="rgb(255, 255, 255)" stroke="none" stroke-width="1px">600</text><text style="text-anchor: middle; visibility: inherit; font-family: Roboto, sans-serif; font-size: 12px; font-weight: 200;" x="663.5686358538541" y="0" dx="0em" dy="0.95em" fill="rgb(255, 255, 255)" stroke="none" stroke-width="1px">800</text><text style="text-anchor: middle; visibility: inherit; font-family: Roboto, sans-serif; font-size: 12px; font-weight: 200;" x="796.2823630246248" y="0" dx="0em" dy="0.95em" fill="rgb(255, 255, 255)" stroke="none" stroke-width="1px">1k</text><text style="text-anchor: middle; visibility: inherit; font-family: Roboto, sans-serif; font-size: 12px; font-weight: 200;" x="928.9960901953957" y="0" dx="0em" dy="0.95em" fill="rgb(255, 255, 255)" stroke="none" stroke-width="1px">1.2k</text><text style="text-anchor: middle; visibility: inherit; font-family: Roboto, sans-serif; font-size: 12px; font-weight: 200;" x="1061.7098173661666" y="0" dx="0em" dy="0.95em" fill="rgb(255, 255, 255)" stroke="none" stroke-width="1px">1.4k</text><text style="text-anchor: middle; visibility: inherit; font-family: Roboto, sans-serif; font-size: 12px; font-weight: 200;" x="1194.4235445369375" y="0" dx="0em" dy="0.95em" fill="rgb(255, 255, 255)" stroke="none" stroke-width="1px">1.6k</text><text style="text-anchor: middle; visibility: inherit; font-family: Roboto, sans-serif; font-size: 12px; font-weight: 200;" x="1327.1372717077081" y="0" dx="0em" dy="0.95em" fill="rgb(255, 255, 255)" stroke="none" stroke-width="1px">1.8k</text><text style="text-anchor: middle; visibility: hidden; font-family: Roboto, sans-serif; font-size: 12px; font-weight: 200;" x="1459.850998878479" y="0" dx="0em" dy="0.95em" fill="rgb(255, 255, 255)" stroke="none" stroke-width="1px">2k</text></g><line x1="0" y1="0" x2="1459.850998878479" y2="0" fill="rgb(0, 0, 0)" stroke="rgb(204, 204, 204)" stroke-width="1px"></line></g></g></g></g></svg>